<svg xmlns="http://www.w3.org/2000/svg" version="1.0" width="314.34" height="92.82" >

<g transform="translate(0,92.82) scale(0.027,-0.027) " fill="#c8252c">
<path d="M1603 2885 c-350 -54 -669 -295 -818 -618 -143 -310 -138 -664 16 -971 150 -301 438 -518 772 -581 103 -19 311 -19 414 0 457 87 809 453 878 912 112 745 -519 1374 -1262 1258z m880 -502 c2 -5 -89 -267 -202 -583 l-206 -575 -132 -3 -131 -3 -16 43 c-9 24 -28 79 -44 123 l-29 80 -331 3 -332 2 0 80 0 80 300 0 c165 0 300 3 300 6 0 4 -5 24 -12 45 l-11 39 -229 0 -228 0 0 80 0 80 199 0 199 0 -22 58 -22 57 -238 3 -237 2 3 78 3 77 342 3 341 2 97 -292 c54 -161 100 -297 103 -302 3 -5 27 61 54 145 27 85 88 272 134 417 l85 262 129 0 c71 0 131 -3 133 -7z" />
<path d="M3160 1795 l0 -585 435 0 435 0 0 85 0 85 -345 0 -345 0 0 170 0 170 305 0 305 0 0 85 0 85 -305 0 -305 0 0 165 0 165 345 0 345 0 0 80 0 80 -435 0 -435 0 0 -585z" />
<path d="M8372 2371 c2 -5 111 -269 243 -585 l240 -576 101 0 102 0 235 568 c130 312 239 575 243 585 6 15 -3 17 -97 17 l-104 0 -175 -432 c-96 -237 -182 -447 -190 -466 l-15 -34 -134 334 c-74 183 -159 393 -189 466 l-54 132 -105 0 c-60 0 -103 -4 -101 -9z" />
<path d="M9560 1796 l0 -586 85 0 85 0 0 200 0 200 163 0 c107 0 183 5 225 15 153 36 265 131 303 257 61 200 -29 394 -218 469 -55 22 -72 24 -350 27 l-293 3 0 -585z m583 390 c85 -41 112 -86 112 -187 0 -70 -3 -81 -30 -120 -58 -82 -149 -109 -367 -109 l-128 0 0 226 0 226 178 -3 c171 -4 179 -5 235 -33z" />
<path d="M10460 1795 l0 -585 85 0 85 0 2 435 3 435 340 -433 340 -432 73 -3 72 -3 0 586 0 585 -90 0 -90 0 -2 -417 -3 -417 -326 415 -325 414 -82 3 -82 3 0 -586z" />
<path d="M5297 2099 c-53 -13 -112 -44 -157 -86 l-40 -35 0 56 0 56 -85 0 -85 0 0 -555 0 -555 85 0 85 0 0 176 0 177 33 -27 c232 -191 575 -75 652 219 32 126 13 284 -48 387 -87 148 -273 226 -440 187z m201 -185 c199 -123 159 -475 -61 -535 -54 -15 -134 -6 -185 20 -53 27 -117 101 -136 158 -20 59 -20 147 0 206 21 62 87 134 149 164 70 34 165 28 233 -13z" />
<path d="M6224 2100 c-64 -13 -141 -56 -190 -107 l-44 -45 0 71 0 71 -85 0 -85 0 0 -440 0 -440 85 0 85 0 0 178 c1 274 18 356 96 441 50 56 105 83 181 89 l63 5 0 93 0 94 -32 -1 c-18 -1 -52 -5 -74 -9z" />
<path d="M4070 2084 c0 -3 70 -100 156 -214 l155 -209 -165 -220 c-91 -121 -166 -223 -166 -226 0 -3 44 -5 98 -4 l97 0 119 162 c110 150 119 160 132 141 8 -10 62 -83 119 -161 l105 -143 95 0 c58 0 95 4 95 10 0 6 -73 108 -163 228 l-163 217 148 195 c82 107 153 203 159 213 9 16 2 17 -88 17 l-98 0 -110 -149 -110 -149 -110 149 -110 149 -97 0 c-54 0 -98 -3 -98 -6z" />
<path d="M6578 2067 c-181 -77 -281 -268 -250 -481 22 -151 110 -273 239 -334 53 -25 68 -27 183 -27 121 0 128 1 190 32 37 18 87 54 115 83 l50 52 -55 48 -54 49 -39 -36 c-22 -19 -64 -47 -94 -60 -46 -21 -66 -25 -127 -21 -96 4 -157 40 -203 118 -58 96 -78 90 277 90 l310 0 0 73 c0 83 -21 180 -51 239 -32 62 -105 135 -168 165 -48 24 -70 28 -161 31 -92 2 -112 0 -162 -21z m208 -132 c75 -22 128 -84 158 -182 l7 -23 -225 0 c-254 0 -242 -4 -205 75 36 76 123 139 200 144 8 1 38 -6 65 -14z" />
<path d="M7361 2071 c-66 -23 -98 -46 -136 -100 -28 -40 -30 -49 -30 -129 0 -76 3 -91 24 -120 40 -56 95 -88 229 -131 70 -22 142 -50 159 -61 58 -35 54 -96 -10 -144 -23 -17 -42 -21 -95 -20 -77 2 -133 20 -214 70 -32 19 -61 33 -66 30 -4 -2 -25 -30 -46 -60 l-38 -56 23 -20 c81 -67 216 -113 334 -113 143 -1 237 46 288 143 25 48 28 63 25 126 -6 129 -66 183 -273 249 -129 41 -172 65 -181 100 -26 104 132 137 292 61 42 -20 78 -36 79 -36 10 0 75 121 70 130 -12 19 -124 70 -187 85 -85 20 -181 18 -247 -4z"/>
<path d="M8051 2071 c-66 -23 -98 -46 -136 -100 -28 -40 -30 -49 -30 -131 0 -74 3 -93 21 -117 42 -57 99 -89 230 -132 71 -22 144 -50 161 -61 58 -35 54 -96 -10 -144 -23 -17 -42 -21 -95 -20 -77 2 -133 20 -214 70 -32 19 -61 33 -66 30 -4 -2 -25 -30 -46 -61 -38 -54 -38 -56 -20 -71 208 -162 515 -158 619 10 27 44 30 58 30 131 0 72 -3 86 -28 123 -35 54 -105 93 -242 137 -129 41 -172 65 -181 100 -26 105 131 138 292 61 42 -20 78 -36 79 -36 10 0 75 121 70 130 -12 19 -124 70 -187 85 -85 20 -181 18 -247 -4z"/>
</g>
</svg>