<?xml version="1.0" standalone="no"?>
<!DOCTYPE svg PUBLIC "-//W3C//DTD SVG 20010904//EN"
 "http://www.w3.org/TR/2001/REC-SVG-20010904/DTD/svg10.dtd">
<svg version="1.0" xmlns="http://www.w3.org/2000/svg"
 width="393pt" height="144pt" viewBox="0 0 393 144"
 preserveAspectRatio="xMidYMid meet">

<g transform="translate(0.000000,129) scale(0.05,-0.05)"
fill="#454c4c">
<path d="M735 2189 c-31 -17 -645 -631 -661 -661 -18 -34 -18 -81 0 -116 8
-15 306 -318 663 -674 690 -688 673 -673 745 -649 42 14 1332 1301 1348 1345
23 61 12 75 -314 409 -171 175 -325 327 -342 337 -30 19 -54 20 -725 20 -480
-1 -700 -4 -714 -11z m549 -558 l173 -173 78 76 c43 42 82 76 87 76 4 0 8 -75
8 -167 l0 -167 -85 -85 -86 -86 -264 266 -265 265 0 71 c0 97 10 106 107 101
l73 -3 174 -174z m664 171 c9 -7 12 -95 10 -408 l-3 -399 -140 0 -140 0 -3
345 -2 344 57 58 c31 31 66 59 77 61 39 8 131 7 144 -1z m-723 -665 l0 -142
-139 -3 c-105 -2 -141 1 -148 10 -12 20 -10 506 3 530 10 19 21 11 148 -116
l136 -136 0 -143z" fill="#12739e"/>
<path d="M3595 2188 c-3 -7 -4 -231 -3 -498 l3 -485 68 -3 67 -3 0 342 0 342
183 -264 c100 -145 189 -265 198 -267 10 -2 74 84 194 258 l180 261 3 -336 2
-335 70 0 70 0 0 501 0 500 -37 -3 c-37 -3 -42 -8 -258 -310 -121 -168 -223
-304 -227 -302 -3 2 -99 135 -214 295 -114 160 -213 297 -221 305 -18 17 -72
18 -78 2z"/>
<path d="M5062 1710 c-128 -269 -232 -494 -232 -500 0 -6 30 -10 73 -10 l73 0
60 130 59 130 225 0 225 0 55 -130 54 -130 78 0 c56 0 78 4 78 13 0 6 -100
231 -222 500 l-221 487 -37 0 -37 0 -231 -490z m352 49 c42 -97 76 -179 76
-183 0 -3 -77 -6 -171 -6 -133 0 -170 3 -166 13 37 91 172 366 177 360 5 -4
42 -87 84 -184z"/>
<path d="M6020 1690 l0 -490 70 0 70 0 0 490 0 490 -70 0 -70 0 0 -490z"/>
<path d="M6424 1948 c-119 -128 -218 -237 -221 -244 -2 -7 96 -123 218 -258
l223 -246 84 0 c67 0 83 3 80 14 -2 8 -99 120 -215 250 -117 129 -213 238
-213 241 0 3 92 104 205 225 113 121 205 227 205 235 0 12 -15 15 -74 15 l-75
0 -217 -232z"/>
<path d="M7035 2168 c-3 -7 -4 -227 -3 -488 l3 -475 375 0 375 0 0 55 0 55
-302 3 -303 2 0 160 0 160 249 0 c137 0 256 3 265 6 12 5 16 20 16 59 0 39 -4
54 -16 59 -9 3 -128 6 -265 6 l-249 0 0 145 0 145 293 2 292 3 3 58 3 57 -366
0 c-283 0 -367 -3 -370 -12z"/>
<path d="M3740 715 c-88 -28 -135 -96 -128 -183 8 -87 49 -118 234 -171 86
-25 124 -57 124 -104 0 -94 -152 -122 -288 -53 -51 26 -62 24 -81 -12 -17 -33
4 -54 82 -83 78 -29 210 -32 272 -5 78 33 115 86 115 164 0 89 -59 144 -189
177 -142 35 -195 77 -171 135 20 48 55 65 135 65 56 -1 80 -6 122 -28 29 -15
55 -27 57 -27 11 0 36 60 30 73 -18 49 -221 82 -314 52z"/>
<path d="M4443 712 c-142 -51 -213 -153 -213 -306 0 -104 22 -160 89 -227 41
-40 72 -61 111 -75 74 -25 180 -24 241 3 52 23 111 80 130 125 11 27 10 32 -6
44 -31 23 -59 17 -78 -16 -63 -106 -213 -125 -311 -39 -118 104 -104 312 28
394 41 25 60 30 110 30 74 0 118 -23 161 -82 33 -45 41 -49 80 -31 33 15 31
34 -10 90 -69 94 -213 133 -332 90z"/>
<path d="M5973 712 c-142 -51 -213 -153 -213 -306 0 -104 22 -160 89 -227 69
-69 133 -94 237 -93 126 2 230 69 282 183 21 45 26 71 26 137 0 72 -4 89 -32
147 -53 108 -142 165 -266 173 -53 4 -84 0 -123 -14z m206 -92 c87 -44 136
-160 113 -268 -21 -98 -80 -160 -172 -181 -185 -41 -326 169 -236 353 56 114
181 155 295 96z"/>
<path d="M6762 712 c-141 -51 -225 -189 -208 -344 12 -116 68 -198 172 -249
165 -81 362 -14 438 150 31 68 30 206 -3 278 -27 62 -94 127 -159 156 -66 29
-172 33 -240 9z m179 -77 c93 -33 149 -122 149 -234 -1 -136 -93 -233 -220
-233 -126 0 -208 84 -218 223 -4 56 -1 75 21 121 50 110 160 161 268 123z"/>
<path d="M5005 707 c-3 -7 -4 -147 -3 -312 l3 -300 40 0 40 0 3 138 3 137 189
0 189 0 3 -137 3 -138 40 0 40 0 0 310 0 310 -40 0 -40 0 -3 -127 -3 -128
-189 0 -190 0 0 130 0 130 -40 0 c-24 0 -43 -5 -45 -13z"/>
<path d="M7352 408 l3 -313 215 0 215 0 3 38 3 37 -175 0 -176 0 -2 273 -3
272 -43 3 -42 3 2 -313z"/>
</g>
</svg>
