<?xml version="1.0" encoding="UTF-8" standalone="no"?>
<!-- Created with Inkscape (http://www.inkscape.org/) -->

<svg
        xmlns:dc="http://purl.org/dc/elements/1.1/"
        xmlns:cc="http://creativecommons.org/ns#"
        xmlns:rdf="http://www.w3.org/1999/02/22-rdf-syntax-ns#"
        xmlns:svg="http://www.w3.org/2000/svg"
        xmlns="http://www.w3.org/2000/svg"
        xmlns:sodipodi="http://sodipodi.sourceforge.net/DTD/sodipodi-0.dtd"
        xmlns:inkscape="http://www.inkscape.org/namespaces/inkscape"
        width="780.72668"
        height="600"
        viewBox="0 0 780.72669 600"
        version="1.1"
        id="SVGRoot"
        inkscape:version="0.92.1 r15371"
        sodipodi:docname="SM_Hacks Logo Black LARGE.svg"
        inkscape:export-filename="C:\Users\jason\SM_Hacks Logo Black LARGE.png"
        inkscape:export-xdpi="96"
        inkscape:export-ydpi="96">
    <sodipodi:namedview
            id="base"
            pagecolor="#ffffff"
            bordercolor="#666666"
            borderopacity="1.0"
            inkscape:pageopacity="0.0"
            inkscape:pageshadow="2"
            inkscape:zoom="0.99"
            inkscape:cx="214.37296"
            inkscape:cy="178.77472"
            inkscape:document-units="px"
            inkscape:current-layer="layer1"
            showgrid="false"
            inkscape:window-width="1278"
            inkscape:window-height="1378"
            inkscape:window-x="-7"
            inkscape:window-y="0"
            inkscape:window-maximized="0"
            inkscape:pagecheckerboard="true"/>
    <defs
            id="defs3854">
        <clipPath
                id="clip1">
            <path
                    inkscape:connector-curvature="0"
                    id="path3768"
                    d="m 0,83 h 152.32812 v 34.06641 H 0 Z m 0,0"/>
        </clipPath>
        <clipPath
                id="clip2">
            <path
                    inkscape:connector-curvature="0"
                    id="path3771"
                    d="M 0,0 H 152.32812 V 117.06641 H 0 Z m 0,0"/>
        </clipPath>
    </defs>
    <metadata
            id="metadata3857">
        <rdf:RDF>
            <cc:Work
                    rdf:about="">
                <dc:format>image/svg+xml</dc:format>
                <dc:type
                        rdf:resource="http://purl.org/dc/dcmitype/StillImage"/>
                <dc:title></dc:title>
            </cc:Work>
        </rdf:RDF>
    </metadata>
    <g
            id="layer1"
            inkscape:groupmode="layer"
            inkscape:label="Layer 1"
            transform="translate(-107.46261,46.28183)">
        <g
                id="surface169940"
                transform="matrix(5.125296,0,0,5.125296,107.46261,-46.28183)">
            <g
                    id="g3778"
                    clip-path="url(#clip1)"
                    style="clip-rule:nonzero">
                <path
                        id="path3776"
                        d="M 147.32812,117.06641 H 5 c -2.761719,0 -5,-2.23828 -5,-5 L 12.5625,88 c 0,-2.761719 1.867188,-5 4.175781,-5 H 135.58984 c 2.3086,0 4.17578,2.238281 4.17578,5 l 12.5625,24.06641 c 0,2.76172 -2.23828,5 -5,5"
                        style="fill:#FD9845;fill-opacity:1;fill-rule:nonzero;stroke:none"
                        inkscape:connector-curvature="0"/>
            </g>
            <g
                    id="g3782"
                    clip-path="url(#clip2)"
                    style="clip-rule:nonzero">
                <path
                        id="path3780"
                        transform="matrix(1,0,0,-1,136.1647,82.9999)"
                        d="M -6.375e-4,-1e-4 H -120.00064 v 77 c 0,1.65625 1.34375,3 3,3 H -3.000637 c 1.65625,0 2.9999995,-1.34375 2.9999995,-3 z m 0,0"
                        style="fill:none;stroke:#FD9845;stroke-width:6;stroke-linecap:butt;stroke-linejoin:miter;stroke-miterlimit:10;stroke-opacity:1"
                        inkscape:connector-curvature="0"/>
            </g>
            <g
                    id="g3788"
                    style="fill:#FD9845;fill-opacity:1">
                <g
                        id="use3784"
                        transform="translate(37.165001,65.987396)">
                    <path
                            inkscape:connector-curvature="0"
                            style="stroke:none"
                            d="m 9.75,-6.4375 c 1.300781,0.699219 2.765625,1.277344 4.390625,1.734375 1.625,0.449219 3.257813,0.671875 4.90625,0.671875 1.425781,0 2.765625,-0.140625 4.015625,-0.421875 1.257813,-0.28125 2.351563,-0.734375 3.28125,-1.359375 0.9375,-0.632813 1.675781,-1.425781 2.21875,-2.375 0.539063,-0.957031 0.8125,-2.082031 0.8125,-3.375 0,-1.78125 -0.59375,-3.234375 -1.78125,-4.359375 -1.1875,-1.125 -2.671875,-2.117188 -4.453125,-2.984375 -1.78125,-0.875 -3.714844,-1.722656 -5.796875,-2.546875 -2.074219,-0.820313 -4,-1.796875 -5.78125,-2.921875 -1.773437,-1.125 -3.257812,-2.5 -4.453125,-4.125 -1.1875,-1.625 -1.78125,-3.691406 -1.78125,-6.203125 0,-1.78125 0.351563,-3.382813 1.0625,-4.8125 0.71875,-1.4375 1.726563,-2.648438 3.03125,-3.640625 1.300781,-1 2.875,-1.769531 4.71875,-2.3125 1.84375,-0.539063 3.890625,-0.8125 6.140625,-0.8125 2.601563,0 4.960938,0.1875 7.078125,0.5625 2.125,0.367187 3.816406,0.851562 5.078125,1.453125 l 0.125,-0.0625 v 0.125 H 32.625 L 32.5625,-44 v 10.390625 H 27.75 V -40.5625 c -1.085937,-0.257813 -2.277344,-0.472656 -3.578125,-0.640625 -1.292969,-0.175781 -2.679687,-0.265625 -4.15625,-0.265625 -1.429687,0 -2.714844,0.171875 -3.859375,0.515625 -1.148437,0.34375 -2.121094,0.8125 -2.921875,1.40625 C 12.429688,-38.960938 11.8125,-38.28125 11.375,-37.5 c -0.4375,0.78125 -0.65625,1.605469 -0.65625,2.46875 0,1.6875 0.59375,3.09375 1.78125,4.21875 1.195313,1.125 2.679688,2.136719 4.453125,3.03125 1.78125,0.886719 3.710938,1.761719 5.796875,2.625 2.082031,0.867187 4.007813,1.875 5.78125,3.03125 1.78125,1.148437 3.265625,2.523437 4.453125,4.125 1.195313,1.605469 1.796875,3.59375 1.796875,5.96875 0,1.960937 -0.359375,3.71875 -1.078125,5.28125 -0.71875,1.554687 -1.742187,2.890625 -3.0625,4.015625 -1.3125,1.125 -2.9375,1.996094 -4.875,2.609375 -1.929687,0.601563 -4.105469,0.90625 -6.53125,0.90625 -1.648437,0 -3.210937,-0.132812 -4.6875,-0.390625 -1.46875,-0.261719 -2.824219,-0.582031 -4.0625,-0.96875 C 9.253906,-0.972656 8.148438,-1.382813 7.171875,-1.8125 6.203125,-2.25 5.4375,-2.617188 4.875,-2.921875 L 4.9375,-3.125 V -13.65625 H 9.75 Z m 0,0"
                            id="path3950"/>
                </g>
                <g
                        id="use3786"
                        transform="translate(76.165001,65.987396)">
                    <path
                            inkscape:connector-curvature="0"
                            style="stroke:none"
                            d="m 29.703125,-30.21875 0.65625,-6.1875 H 30.03125 l -3.125,5.59375 -6.625,11.125 h -1.625 l -6.953125,-11.1875 -3,-5.53125 h -0.3125 l 0.78125,6.109375 V 0 H 3.90625 v -45.5 h 5 l 10.78125,17.296875 h 0.140625 L 30.21875,-45.5 h 4.875 V 0 h -5.390625 z m 0,0"
                            id="path3966"/>
                </g>
            </g>
            <g
                    id="g3800"
                    style="fill:#333333;fill-opacity:1">
                <g
                        id="use3790"
                        transform="translate(26.2026,111.0455)">
                    <path
                            inkscape:connector-curvature="0"
                            style="stroke:none"
                            d="M 4.265625,0 H 4.09375 C 3.53125,0 3.25,-0.28125 3.25,-0.84375 v -22.8125 c 0,-0.238281 0.082031,-0.4375 0.25,-0.59375 0.164063,-0.164063 0.363281,-0.25 0.59375,-0.25 0.226563,0 0.429688,0.08594 0.609375,0.25 0.175781,0.15625 0.265625,0.355469 0.265625,0.59375 v 9.03125 c 1.425781,-1.6875 3.1875,-2.53125 5.28125,-2.53125 2.101563,0 3.847656,0.640625 5.234375,1.921875 1.382813,1.273437 2.078125,2.886719 2.078125,4.84375 v 9.546875 c 0,0.242187 -0.08984,0.445312 -0.265625,0.609375 C 17.128906,-0.078125 16.925781,0 16.6875,0 16.457031,0 16.257813,-0.078125 16.09375,-0.234375 15.9375,-0.398438 15.859375,-0.601563 15.859375,-0.84375 v -9.546875 c 0,-1.46875 -0.527344,-2.675781 -1.578125,-3.625 -1.054687,-0.945313 -2.34375,-1.421875 -3.875,-1.421875 -1.523437,0 -2.808594,0.476562 -3.859375,1.421875 -1.054687,0.949219 -1.578125,2.15625 -1.578125,3.625 v 9.65625 c 0,0.042969 -0.046875,0.152344 -0.140625,0.328125 -0.09375,0.179687 -0.257812,0.304687 -0.484375,0.375 C 4.320313,-0.0078125 4.296875,0 4.265625,0 Z m 0,0"
                            id="path3954"/>
                </g>
                <g
                        id="use3792"
                        transform="translate(47.6576,111.0455)">
                    <path
                            inkscape:connector-curvature="0"
                            style="stroke:none"
                            d="m 16.203125,-16.90625 c 0.164063,-0.164063 0.363281,-0.25 0.59375,-0.25 0.238281,0 0.4375,0.08594 0.59375,0.25 0.164063,0.167969 0.25,0.367187 0.25,0.59375 v 15.46875 c 0,0.242187 -0.08594,0.445312 -0.25,0.609375 C 17.234375,-0.078125 17.035156,0 16.796875,0 c -0.230469,0 -0.429687,-0.078125 -0.59375,-0.234375 -0.167969,-0.164063 -0.25,-0.367188 -0.25,-0.609375 v -2.546875 c -0.742187,1.054687 -1.679687,1.882812 -2.8125,2.484375 C 12.003906,-0.300781 10.796875,0 9.515625,0 7.273438,0 5.363281,-0.835938 3.78125,-2.515625 c -1.585937,-1.6875 -2.375,-3.707031 -2.375,-6.0625 0,-2.351563 0.789063,-4.367188 2.375,-6.046875 1.582031,-1.6875 3.492188,-2.53125 5.734375,-2.53125 1.28125,0 2.488281,0.308594 3.625,0.921875 1.132813,0.605469 2.070313,1.417969 2.8125,2.4375 V -16.3125 c 0,-0.226563 0.08203,-0.425781 0.25,-0.59375 z m -13.125,8.34375 c 0,1.90625 0.632813,3.53125 1.90625,4.875 1.269531,1.335937 2.785156,2 4.546875,2 1.769531,0 3.28125,-0.664063 4.53125,-2 1.257813,-1.34375 1.890625,-2.96875 1.890625,-4.875 0,-1.914063 -0.632812,-3.550781 -1.890625,-4.90625 -1.25,-1.351563 -2.761719,-2.03125 -4.53125,-2.03125 -1.761719,0 -3.277344,0.679687 -4.546875,2.03125 -1.273437,1.355469 -1.90625,2.992187 -1.90625,4.90625 z m 0,0"
                            id="path3962"/>
                </g>
                <g
                        id="use3794"
                        transform="translate(69.322601,111.0455)">
                    <path
                            inkscape:connector-curvature="0"
                            style="stroke:none"
                            d="m 10.84375,0 c -2.449219,0 -4.53125,-0.832031 -6.25,-2.5 -1.710937,-1.664063 -2.5625,-3.695313 -2.5625,-6.09375 0,-2.394531 0.851563,-4.421875 2.5625,-6.078125 1.71875,-1.65625 3.703125,-2.484375 5.953125,-2.484375 2.257813,0 4.179688,0.632812 5.765625,1.890625 0.1875,0.125 0.289063,0.304687 0.3125,0.53125 0.01953,0.230469 -0.04687,0.4375 -0.203125,0.625 -0.355469,0.398437 -0.742187,0.445312 -1.15625,0.140625 C 13.972656,-14.988281 12.414063,-15.5 10.59375,-15.5 c -1.8125,0 -3.417969,0.679687 -4.8125,2.03125 -1.386719,1.355469 -2.078125,2.992187 -2.078125,4.90625 0,1.90625 0.691406,3.53125 2.078125,4.875 1.394531,1.335937 2.992188,2 4.796875,2 1.8125,0 3.375,-0.5 4.6875,-1.5 0.414063,-0.300781 0.800781,-0.238281 1.15625,0.1875 0.363281,0.417969 0.300781,0.8125 -0.1875,1.1875 C 14.671875,-0.601563 12.875,0 10.84375,0 Z m 0,0"
                            id="path3970"/>
                </g>
                <g
                        id="use3796"
                        transform="translate(89.307602,111.0455)">
                    <path
                            inkscape:connector-curvature="0"
                            style="stroke:none"
                            d="m 3.25,-0.84375 v -22.8125 c 0,-0.238281 0.082031,-0.4375 0.25,-0.59375 0.164063,-0.164063 0.363281,-0.25 0.59375,-0.25 0.226563,0 0.429688,0.08594 0.609375,0.25 0.175781,0.15625 0.265625,0.355469 0.265625,0.59375 v 16.484375 l 10.15625,-10.125 c 0.394531,-0.394531 0.789063,-0.394531 1.1875,0 0.1875,0.167969 0.28125,0.367187 0.28125,0.59375 0,0.21875 -0.09375,0.421875 -0.28125,0.609375 l -6.625,6.609375 6.65625,8.078125 c 0.351563,0.429687 0.332031,0.839844 -0.0625,1.234375 C 16.132813,-0.0546875 15.921875,0 15.640625,0 c -0.28125,0 -0.480469,-0.101563 -0.59375,-0.3125 l -6.578125,-7.953125 -3.5,3.5 v 3.921875 c 0,0.242187 -0.089844,0.445312 -0.265625,0.609375 C 4.523438,-0.078125 4.320313,0 4.09375,0 3.863281,0 3.664063,-0.078125 3.5,-0.234375 3.332031,-0.398438 3.25,-0.601563 3.25,-0.84375 Z m 0,0"
                            id="path3958"/>
                </g>
                <g
                        id="use3798"
                        transform="translate(108.9076,111.0455)">
                    <path
                            inkscape:connector-curvature="0"
                            style="stroke:none"
                            d="M 2.171875,-2.453125 C 1.773438,-2.796875 1.738281,-3.164063 2.0625,-3.5625 2.207031,-3.75 2.394531,-3.851563 2.625,-3.875 c 0.226563,-0.03125 0.4375,0.039062 0.625,0.203125 1.820313,1.324219 3.476563,1.984375 4.96875,1.984375 1.5,0 2.679688,-0.347656 3.546875,-1.046875 C 12.628906,-3.316406 13.050781,-4 13.03125,-4.78125 13.019531,-5.5625 12.632813,-6.253906 11.875,-6.859375 11.125,-7.460938 9.894531,-7.90625 8.1875,-8.1875 L 8.125,-8.21875 C 6.300781,-8.550781 5.003906,-9 4.234375,-9.5625 2.992188,-10.28125 2.375,-11.300781 2.375,-12.625 c 0,-1.332031 0.617188,-2.457031 1.859375,-3.375 1.125,-0.769531 2.523438,-1.15625 4.203125,-1.15625 0.675781,0 1.359375,0.117187 2.046875,0.34375 0.6875,0.21875 1.207031,0.429687 1.5625,0.625 0.363281,0.199219 0.863281,0.496094 1.5,0.890625 0.1875,0.148437 0.300781,0.335937 0.34375,0.5625 0.05078,0.230469 0.01563,0.4375 -0.109375,0.625 -0.117187,0.1875 -0.289062,0.308594 -0.515625,0.359375 -0.230469,0.04297 -0.4375,0.0078 -0.625,-0.109375 -0.585937,-0.394531 -1.023437,-0.679688 -1.3125,-0.859375 -0.292969,-0.175781 -0.71875,-0.363281 -1.28125,-0.5625 -0.5625,-0.195313 -1.101562,-0.296875 -1.609375,-0.296875 -1.355469,0 -2.417969,0.3125 -3.1875,0.9375 -0.773437,0.617187 -1.15625,1.261719 -1.15625,1.9375 0,0.679687 0.328125,1.273437 0.984375,1.78125 0.8125,0.5625 1.976563,0.960937 3.5,1.1875 h 0.0625 c 1.519531,0.242187 2.910156,0.710937 4.171875,1.40625 1.28125,0.84375 1.921875,1.976562 1.921875,3.390625 0,1.40625 -0.636719,2.585937 -1.90625,3.53125 C 11.554688,-0.46875 10.113281,0 8.5,0 6.289063,-0.0195313 4.179688,-0.835938 2.171875,-2.453125 Z m 0,0"
                            id="path3974"/>
                </g>
            </g>
        </g>
    </g>
</svg>
