<?xml version="1.0" standalone="no"?>
<!DOCTYPE svg PUBLIC "-//W3C//DTD SVG 20010904//EN"
 "http://www.w3.org/TR/2001/REC-SVG-20010904/DTD/svg10.dtd">
<svg version="1.0" xmlns="http://www.w3.org/2000/svg"
 width="2000.000000pt" height="1429.000000pt" viewBox="0 0 2000.000000 1429.000000"
 preserveAspectRatio="xMidYMid meet">
<metadata>
Created by potrace 1.15, written by Peter Selinger 2001-2017
</metadata>
<g transform="translate(0.000000,1429.000000) scale(0.100000,-0.100000)"
fill="#fd9845" stroke="none">
<path d="M2830 14250 c-8 -5 -31 -10 -51 -10 -25 0 -43 -7 -60 -26 -13 -14
-38 -32 -56 -39 -44 -19 -138 -90 -160 -121 -10 -14 -32 -42 -49 -62 -44 -52
-120 -211 -138 -290 -13 -59 -15 -621 -17 -4927 l-1 -4860 -34 -105 c-18 -58
-38 -143 -43 -189 -9 -73 -17 -93 -55 -156 -25 -39 -58 -101 -74 -136 -16 -36
-75 -145 -131 -242 -55 -97 -101 -184 -101 -193 0 -9 -13 -42 -30 -73 -16 -31
-79 -153 -141 -271 -62 -118 -123 -229 -136 -247 -12 -17 -23 -38 -23 -45 0
-8 -16 -46 -35 -85 -19 -40 -51 -108 -70 -153 -46 -107 -172 -350 -195 -375
-26 -29 -85 -140 -114 -215 -31 -80 -143 -302 -219 -434 -31 -54 -57 -103 -57
-107 0 -5 -11 -27 -25 -49 -14 -22 -25 -45 -25 -52 0 -7 -16 -42 -35 -78 -34
-61 -35 -68 -35 -167 0 -72 4 -111 14 -126 8 -12 17 -38 21 -57 12 -57 50
-111 137 -196 78 -76 168 -134 207 -134 10 0 20 -2 23 -5 9 -9 17722 -5 17758
4 48 12 110 40 127 57 8 8 27 21 42 28 59 31 159 162 198 261 6 17 12 78 12
136 1 174 -31 267 -195 556 -35 62 -64 117 -64 121 0 5 -32 76 -71 158 -39 82
-77 166 -85 187 -7 20 -26 56 -42 80 -16 23 -53 87 -82 142 -29 55 -66 121
-81 146 -16 25 -35 66 -43 91 -7 25 -28 67 -47 94 -18 27 -45 79 -60 116 -16
37 -70 143 -121 235 -51 92 -107 201 -125 242 -17 40 -38 81 -46 90 -27 29
-126 214 -336 622 l-84 164 -7 100 c-6 73 -15 116 -34 160 -25 59 -26 64 -26
308 0 146 -4 256 -10 267 -7 12 -10 1584 -10 4639 0 4193 -2 4626 -16 4683 -9
35 -20 67 -25 72 -5 6 -9 19 -9 30 0 12 -15 46 -33 76 -17 30 -39 68 -46 83
-26 49 -191 207 -217 207 -8 0 -42 13 -76 29 -35 16 -84 34 -111 40 -62 14
-14305 16 -14327 1z m14118 -717 c9 -23 9 -8963 0 -8985 -7 -17 -347 -18
-6952 -18 -6856 0 -6945 0 -6956 19 -16 30 -14 8973 2 8989 9 9 1568 12 6955
12 6604 0 6944 -1 6951 -17z m-10121 -9997 l28 -24 0 -206 c0 -200 -1 -206
-23 -228 l-23 -23 -590 -3 -590 -2 -9 -23 c-8 -20 -52 -201 -299 -1244 -50
-209 -91 -390 -91 -402 l0 -21 695 0 c509 0 701 -3 720 -12 14 -6 29 -23 33
-37 4 -14 7 -113 7 -218 0 -187 -1 -193 -23 -215 l-23 -23 -1759 0 -1759 0
-23 23 c-22 22 -23 28 -23 227 0 199 1 205 23 227 l23 23 786 5 787 5 7 30 c4
17 51 215 104 440 53 226 142 589 196 808 54 219 99 400 99 402 0 3 -247 5
-549 5 -565 0 -601 2 -621 40 -6 11 -10 108 -10 220 0 200 0 201 25 225 l24
25 1415 0 1415 0 28 -24z m4592 13 c17 -6 36 -19 41 -29 13 -24 13 -406 0
-430 -20 -38 -55 -40 -641 -40 l-569 0 0 -845 0 -845 784 0 c521 0 793 -4 813
-10 48 -17 53 -42 53 -256 0 -194 0 -195 -25 -219 l-24 -25 -1865 0 -1865 0
-28 24 -28 24 0 206 c0 200 1 206 23 228 l23 23 819 3 820 2 0 493 c0 270 -3
651 -7 845 l-6 352 -578 0 -578 0 -28 24 -28 24 0 205 c0 186 2 207 19 225 10
12 28 23 40 25 11 2 647 5 1412 6 993 1 1400 -2 1423 -10z m4650 -15 c20 -25
21 -40 21 -224 0 -184 -1 -199 -21 -224 l-20 -26 -570 0 c-313 0 -569 -3 -568
-7 0 -5 91 -386 202 -848 l203 -840 788 -5 788 -5 19 -24 c17 -21 19 -41 19
-223 0 -111 -4 -207 -10 -218 -5 -10 -24 -23 -41 -29 -45 -16 -3463 -16 -3508
0 -17 6 -36 19 -41 29 -6 11 -10 106 -10 215 0 109 4 204 10 215 21 38 51 40
761 40 443 0 689 3 689 10 0 17 -85 376 -225 955 -75 308 -143 594 -151 635
-9 41 -21 81 -26 87 -8 10 -149 13 -600 15 l-590 3 -19 24 c-17 21 -19 41 -19
227 0 191 1 205 20 224 20 20 33 20 1449 20 l1430 0 20 -26z"/>
<path d="M7735 11903 c-161 -6 -407 -25 -502 -39 -122 -17 -367 -83 -467 -125
-169 -72 -406 -229 -527 -349 -155 -155 -235 -295 -304 -540 l-47 -163 -1
-191 c-1 -225 12 -306 77 -490 79 -221 133 -304 334 -509 105 -107 195 -177
373 -287 166 -103 610 -322 864 -425 262 -107 519 -228 661 -312 122 -73 349
-236 417 -302 72 -67 138 -177 177 -291 30 -89 38 -300 15 -380 -9 -30 -21
-80 -28 -111 -21 -94 -91 -203 -197 -310 -109 -109 -174 -155 -303 -211 -121
-53 -232 -80 -462 -113 -200 -29 -213 -29 -485 -5 -254 22 -561 114 -830 248
l-75 37 -3 424 c-1 293 -6 428 -13 438 -16 18 -539 19 -557 1 -15 -15 -17
-1252 -3 -1291 9 -24 33 -36 361 -177 215 -93 429 -153 805 -228 l240 -47 320
0 c298 1 331 3 486 28 130 21 202 39 330 83 198 69 269 102 419 194 128 79
207 151 361 330 114 131 176 242 232 410 74 221 90 379 67 634 -34 389 -136
578 -493 914 -135 127 -224 186 -558 370 -220 121 -284 152 -550 262 -237 98
-615 284 -791 388 -109 65 -207 143 -329 263 -90 88 -99 101 -139 192 -50 117
-84 271 -76 338 11 80 52 207 87 266 48 80 179 215 264 272 80 53 216 110 390
163 l110 33 330 0 c266 0 349 -3 430 -17 55 -9 129 -20 165 -23 56 -5 161 -25
275 -53 l30 -8 5 -409 c3 -226 9 -416 13 -422 6 -10 74 -13 282 -13 261 0 275
1 285 19 6 13 10 231 10 639 0 576 -1 621 -17 640 -25 28 -247 106 -363 126
-52 10 -197 37 -322 62 -185 36 -268 46 -455 59 -125 8 -232 14 -238 13 -5 -1
-41 -3 -80 -5z"/>
<path d="M13692 11797 c-10 -5 -60 -79 -111 -165 -154 -257 -345 -574 -476
-787 -68 -110 -155 -254 -193 -320 -38 -66 -98 -167 -134 -225 -35 -58 -125
-208 -198 -334 -73 -126 -143 -240 -155 -254 l-21 -25 -20 21 c-10 11 -41 58
-69 104 -27 46 -144 236 -261 423 -116 187 -253 410 -304 495 -51 85 -136 223
-190 305 -53 83 -137 218 -187 300 -162 270 -255 420 -276 443 -20 22 -22 22
-312 22 -213 0 -294 -3 -303 -12 -17 -17 -17 -5519 0 -5536 15 -15 595 -17
618 -2 13 8 15 228 11 1907 -3 1612 -5 1903 -18 1937 -7 23 -16 66 -18 96 -3
30 -12 138 -20 240 -9 102 -21 195 -27 208 -9 17 -9 25 1 35 17 17 36 -8 106
-141 128 -239 291 -531 335 -597 26 -38 97 -155 160 -260 119 -201 302 -493
380 -610 26 -38 86 -137 134 -220 117 -202 111 -196 227 -196 80 0 96 2 107
18 56 77 830 1378 987 1658 207 369 216 382 229 329 4 -14 4 -29 1 -34 -3 -5
-12 -76 -20 -157 -8 -81 -20 -170 -27 -198 -9 -38 -13 -508 -15 -2025 -3
-1855 -2 -1976 14 -1987 22 -17 584 -19 614 -3 19 11 19 52 19 2775 0 2028 -3
2766 -11 2771 -16 10 -555 11 -577 1z"/>
</g>
</svg>
