<?xml version="1.0" encoding="UTF-8" standalone="no"?>
<!-- Generator: Adobe Illustrator 19.1.0, SVG Export Plug-In . SVG Version: 6.00 Build 0)  -->

<svg
   xmlns:dc="http://purl.org/dc/elements/1.1/"
   xmlns:cc="http://creativecommons.org/ns#"
   xmlns:rdf="http://www.w3.org/1999/02/22-rdf-syntax-ns#"
   xmlns:svg="http://www.w3.org/2000/svg"
   xmlns="http://www.w3.org/2000/svg"
   xmlns:sodipodi="http://sodipodi.sourceforge.net/DTD/sodipodi-0.dtd"
   xmlns:inkscape="http://www.inkscape.org/namespaces/inkscape"
   version="1.1"
   id="Layer_1"
   x="0px"
   y="0px"
   viewBox="0 0 504.20001 360.20001"
   xml:space="preserve"
   sodipodi:docname="logo.svg"
   width="504.20001"
   height="360.20001"
   inkscape:version="0.92.2 5c3e80d, 2017-08-06"><metadata
     id="metadata4271"><rdf:RDF><cc:Work
         rdf:about=""><dc:format>image/svg+xml</dc:format><dc:type
           rdf:resource="http://purl.org/dc/dcmitype/StillImage" /></cc:Work></rdf:RDF></metadata><defs
     id="defs4269" /><sodipodi:namedview
     pagecolor="#ffffff"
     bordercolor="#666666"
     borderopacity="1"
     objecttolerance="10"
     gridtolerance="10"
     guidetolerance="10"
     inkscape:pageopacity="0"
     inkscape:pageshadow="2"
     inkscape:window-width="1622"
     inkscape:window-height="1005"
     id="namedview4267"
     showgrid="false"
     inkscape:measure-start="0,0"
     inkscape:measure-end="0,0"
     inkscape:zoom="0.2979798"
     inkscape:cx="251.8"
     inkscape:cy="180.4"
     inkscape:window-x="0"
     inkscape:window-y="1"
     inkscape:window-maximized="1"
     inkscape:current-layer="Layer_1" /><style
     type="text/css"
     id="style4154">
	.st0{fill:#FFFFFF; fill-opacity: 0;}
	.st1{fill:#FC9845;}
	.st2{fill:#FDB377;}
	.st3{fill:#FCA863;}
	.st4{fill:#FDB982;}
	.st5{fill:#FDB478;}
	.st6{fill:#FFFFFF; fill-opacity: 0;}
	.st7{fill:#FC9947;}
</style><g
     id="g4264"
     transform="translate(-54.2,-216.2)"><g
       id="g4262"><path
         class="st0"
         d="m 54.2,216.2 c 168.1,0 336.2,0 504.2,0 0,120.1 0,240.2 0,360.2 -168.1,0 -336.2,0 -504.2,0 0,-120 0,-240.1 0,-360.2 z m 22.9,356 c 0.2,0.2 0.3,0.3 0.5,0.5 0.3,0.3 0.6,0.5 0.9,0.8 0.2,0.1 0.4,0.2 0.6,0.4 0.2,0.1 0.4,0.2 0.7,0.4 0.3,0.1 0.7,0.3 1,0.4 0,0 0.1,0.1 0.1,0.1 0.2,0.1 0.4,0.2 0.6,0.3 0.3,0 0.6,0 0.9,0.1 0.3,1.2 1.3,0.7 2,0.7 147.9,0 295.7,0 443.6,0 0.3,0 0.7,0.1 1,0 0.4,-0.2 0.7,-0.5 1.1,-0.7 0.2,0 0.5,0 0.7,0 0.3,-0.1 0.5,-0.2 0.8,-0.4 0.1,0 0.1,0 0.2,-0.1 0.8,0.1 1.3,-0.2 1.6,-1 0.1,-0.1 0.2,-0.2 0.3,-0.3 0.3,-0.1 0.8,0 1,-0.2 1.3,-1.3 2.8,-2.4 3.4,-4.2 v 0 c 0.9,-1.2 1.5,-2.4 1.4,-4 -0.1,-1.5 0.2,-3 -0.1,-4.4 -0.2,-1.5 -0.7,-3.1 -1.3,-4.5 -1,-2.1 -2.1,-4.1 -3.3,-6.2 -0.6,-1 -1.2,-2 -1.8,-3.1 -0.2,-0.6 -0.3,-1.2 -0.6,-1.8 -0.6,-1.2 -1.4,-2.3 -1.8,-3.6 -0.4,-1.3 -1.3,-2.3 -1.6,-3.6 -0.3,-1.1 -1.2,-2 -1.7,-3 -0.9,-1.7 -1.8,-3.5 -2.8,-5.2 -0.5,-0.9 -1.1,-1.6 -1.5,-2.5 -0.3,-0.6 -0.3,-1.4 -0.6,-2 -0.5,-1 -1.3,-1.8 -1.8,-2.8 -0.5,-1 -0.8,-2.1 -1.3,-3.1 -1.3,-2.4 -2.7,-4.8 -4,-7.3 -0.2,-0.4 -0.5,-0.8 -0.7,-1.2 -0.4,-1 -0.8,-2.1 -1.3,-3.1 -0.3,-0.6 -0.8,-1 -1.1,-1.6 -0.7,-1.4 -1.4,-2.8 -2.2,-4.1 -0.5,-0.9 -1,-1.6 -1.5,-2.5 -0.5,-1 -0.9,-2.1 -1.4,-3.1 -0.3,-0.6 -0.7,-1 -1,-1.6 -0.7,-1.4 -1.4,-2.8 -2.1,-4.2 -0.9,-2 -2.4,-3.6 -2.1,-6.1 0.2,-1.1 -0.1,-2.4 -0.6,-3.5 -0.6,-1.2 -1.1,-2.3 -1,-3.6 0.1,-3.6 0,-7.2 0,-10.8 0,-0.3 -0.1,-0.7 -0.2,-1 0,-0.6 -0.1,-1.1 -0.1,-1.7 0,-76.6 0,-153.2 0,-229.9 0,-0.5 -0.1,-1 -0.2,-1.5 0,-0.2 0,-0.3 0,-0.5 -0.2,-0.8 -0.2,-1.6 -0.5,-2.4 -0.1,-0.4 -0.5,-0.7 -0.7,-1 0,-0.2 0,-0.5 0,-0.7 -0.2,-0.3 -0.4,-0.7 -0.6,-1 -0.2,-0.4 -0.4,-0.8 -0.6,-1.1 -0.1,-0.2 -0.3,-0.3 -0.4,-0.5 0,-0.2 -0.1,-0.3 -0.1,-0.5 -0.3,-0.4 -0.6,-0.8 -0.8,-1.2 -0.3,-0.4 -0.7,-0.8 -1,-1.2 -0.4,-0.4 -0.8,-0.8 -1.2,-1.1 -0.2,-0.1 -0.4,-0.3 -0.6,-0.4 -0.2,-0.2 -0.5,-0.5 -0.7,-0.7 v 0 c -0.2,-0.7 -0.8,-1 -1.5,-0.9 -0.3,-0.1 -0.5,-0.2 -0.8,-0.3 -0.5,-0.3 -1.1,-0.5 -1.6,-0.8 0,-0.1 -0.1,-0.1 -0.2,-0.1 -0.2,-0.1 -0.4,-0.2 -0.6,-0.4 -0.3,0 -0.6,0 -1,-0.1 -0.7,-0.2 -1.5,-0.5 -2.2,-0.5 -118.9,0 -237.8,0 -356.7,0 -0.4,0 -0.9,-0.1 -1.3,0 -0.3,0.1 -0.7,0.3 -1,0.5 -0.4,0 -0.8,0 -1.2,0.1 -1.1,-0.3 -1.5,0.7 -2.1,1.3 -0.4,0.2 -0.8,0.3 -1.3,0.5 -0.2,0.1 -0.4,0.2 -0.6,0.3 -0.3,0.3 -0.6,0.6 -0.9,0.8 -0.4,0.3 -0.9,0.6 -1.3,0.8 -0.2,0.2 -0.5,0.5 -0.7,0.7 -0.2,0.4 -0.5,0.7 -0.7,1.1 -0.4,0.5 -0.8,0.9 -1.1,1.4 -0.2,0.3 -0.4,0.5 -0.6,0.8 -0.1,0.2 -0.2,0.5 -0.3,0.7 -0.3,0.5 -0.5,0.9 -0.8,1.4 0,0.2 -0.1,0.4 -0.1,0.6 -0.3,0.5 -0.6,1 -0.8,1.6 -0.2,0.4 -0.2,0.9 -0.3,1.4 0,0 -0.1,0.1 -0.1,0.2 -0.1,0.5 -0.3,1 -0.3,1.6 0,77.1 0,154.1 0,231.2 0,0.5 0,1 -0.1,1.6 -0.1,0.2 -0.2,0.3 -0.2,0.5 0,3.6 0,7.3 0,10.9 0,0.4 0.3,0.8 0.1,1.1 -0.5,1.1 -0.9,2.4 -1.3,3.5 -0.5,1.5 -0.4,2.9 -0.6,4.3 -0.1,0.7 -0.3,1.3 -0.6,1.9 -0.5,1 -1.3,1.9 -1.8,2.9 -0.5,1 -0.8,2.1 -1.4,3.1 -1.5,2.7 -3.1,5.4 -4.6,8.1 -0.2,0.4 -0.7,0.8 -0.7,1.2 0.1,1.3 -0.9,2.2 -1.3,3.2 -1.5,3.5 -3.5,6.8 -5.3,10.1 -0.2,0.4 -0.3,0.9 -0.6,1.3 -0.4,0.6 -1.1,1 -1.1,1.6 -0.2,1.4 -1.1,2.5 -1.6,3.7 -0.4,1 -0.8,1.9 -1.2,2.9 -0.1,0.2 -0.2,0.4 -0.3,0.6 -0.1,0.3 -0.3,0.6 -0.4,0.9 -0.3,0.5 -0.6,1 -0.8,1.5 -0.1,0.2 -0.2,0.5 -0.3,0.7 -0.3,0.5 -0.5,0.9 -0.8,1.4 -0.1,0.3 -0.3,0.7 -0.4,1 -0.1,0.2 -0.2,0.3 -0.3,0.5 0,0.1 0,0.3 0,0.4 -0.2,0.2 -0.3,0.3 -0.5,0.5 -0.2,0.5 -0.5,0.9 -0.7,1.4 -0.2,0.1 -0.5,0.2 -0.6,0.4 -0.6,1.2 -1.3,2.3 -1.9,3.5 -0.5,1.1 -0.9,2.2 -1.3,3.3 -0.1,0.3 -0.3,0.5 -0.4,0.8 -0.2,0.4 -0.4,0.7 -0.7,1.1 0,0.2 -0.1,0.3 -0.1,0.5 -0.1,0.2 -0.3,0.3 -0.4,0.5 0,0.2 0,0.3 0,0.5 -0.2,0.3 -0.4,0.7 -0.6,1 0,0.2 -0.1,0.3 -0.1,0.5 -0.1,0.2 -0.3,0.3 -0.4,0.5 -0.2,0.4 -0.4,0.9 -0.6,1.3 -1,1.8 -2,3.6 -3,5.4 -0.1,0.2 -0.2,0.5 -0.3,0.7 -0.3,0.5 -0.5,0.9 -0.8,1.4 -0.1,0.3 -0.3,0.7 -0.4,1 -0.3,0.5 -0.5,0.9 -0.8,1.4 -0.1,0.3 -0.1,0.5 -0.2,0.8 -0.2,0.3 -0.5,0.6 -0.5,0.8 0,1.6 -0.1,3.2 0,4.8 0,0.3 0.4,0.6 0.6,0.9 0.2,0.7 0.3,1.3 0.5,2 0.4,0.7 0.8,1.3 1.2,2 0.3,0.4 0.7,0.8 1,1.1 0.2,0.2 0.3,0.3 0.5,0.5 0.1,0.1 0.2,0.2 0.2,0.2 0.1,0.1 0.3,0.3 0.5,0.5 -0.1,-0.1 0,0 0,0 z"
         id="path4156"
         inkscape:connector-curvature="0"
         style="fill:#ffffff;fill-opacity:0" /><path
         class="st1"
         d="m 88.3,529.5 c 0.1,-0.2 0.2,-0.5 0.3,-0.7 0.8,-0.2 1,-0.8 0.8,-1.5 0.1,-0.3 0.3,-0.6 0.4,-0.9 0.1,-0.2 0.2,-0.4 0.3,-0.6 0.4,-1 0.8,-1.9 1.2,-2.9 0.5,-1.2 1.5,-2.2 1.6,-3.7 0.1,-0.6 0.8,-1 1.1,-1.6 0.2,-0.4 0.4,-0.9 0.6,-1.3 1.8,-3.4 3.7,-6.6 5.3,-10.1 0.4,-1 1.5,-1.9 1.3,-3.2 0,-0.4 0.5,-0.8 0.7,-1.2 1.5,-2.7 3.1,-5.4 4.6,-8.1 0.5,-1 0.8,-2.1 1.4,-3.1 0.5,-1 1.3,-1.9 1.8,-2.9 0.3,-0.6 0.5,-1.3 0.6,-1.9 0.2,-1.4 0,-2.8 0.6,-4.3 0.4,-1.1 0.7,-2.4 1.3,-3.5 0.1,-0.3 -0.1,-0.7 -0.1,-1.1 0,-3.6 0,-7.3 0,-10.9 0,-0.2 0.1,-0.3 0.2,-0.5 0.2,-0.5 0.5,-1 0.5,-1.5 0,-77.1 0,-154.1 0,-231.2 0,-0.6 -0.1,-1.1 -0.1,-1.7 0,-0.1 0,-0.1 0.1,-0.2 0.2,-0.2 0.6,-0.3 0.6,-0.5 0.2,-0.8 0.3,-1.6 0.5,-2.4 0,-0.2 0.1,-0.4 0.1,-0.6 0.3,-0.5 0.5,-0.9 0.8,-1.4 0.1,-0.2 0.2,-0.5 0.3,-0.7 0.2,-0.3 0.4,-0.5 0.6,-0.8 0.4,-0.5 0.8,-0.9 1.1,-1.4 0.2,-0.4 0.5,-0.7 0.7,-1.1 0.2,-0.2 0.5,-0.5 0.7,-0.7 0.4,-0.3 0.9,-0.6 1.3,-0.8 0.3,-0.3 0.6,-0.6 0.9,-0.8 0.2,-0.1 0.4,-0.2 0.6,-0.3 0.4,-0.2 0.8,-0.3 1.3,-0.5 0.7,-0.4 1.4,-0.8 2.1,-1.3 0.4,0 0.8,0 1.2,-0.1 0.4,0.1 0.8,0.2 1.3,0.2 119.6,0 239.1,0 358.7,0 0.4,0 0.8,-0.1 1.3,-0.2 0.3,0 0.6,0 1,0.1 0.2,0.1 0.4,0.2 0.6,0.4 0.1,0 0.1,0 0.2,0.1 0.5,0.3 1.1,0.5 1.6,0.8 0.3,0.1 0.5,0.2 0.8,0.3 0.5,0.3 1,0.6 1.5,0.9 0,0 0,0 0,0 0.2,0.2 0.5,0.5 0.7,0.7 0.2,0.1 0.4,0.3 0.6,0.4 0.4,0.4 0.8,0.8 1.2,1.1 0.3,0.4 0.7,0.8 1,1.2 0.3,0.4 0.6,0.8 0.8,1.2 0,0.2 0.1,0.3 0.1,0.5 0.1,0.2 0.3,0.3 0.4,0.5 0.2,0.4 0.4,0.8 0.6,1.1 0.2,0.3 0.4,0.7 0.6,1 0,0.2 0,0.5 0,0.7 0.2,1 0.4,2.1 0.7,3.1 0,0.1 0.3,0.2 0.5,0.3 0,0.2 0,0.3 0,0.5 -0.1,0.5 -0.2,1 -0.2,1.5 0,76.6 0,153.3 0,229.9 0,0.4 -0.1,0.7 0,1.1 0,0.2 0.3,0.4 0.5,0.6 0.1,0.3 0.2,0.7 0.2,1 0,3.6 0,7.2 0,10.8 0,1.4 0.5,2.5 1,3.6 0.5,1 0.8,2.4 0.6,3.5 -0.3,2.5 1.2,4.1 2.1,6.1 0.6,1.4 1.3,2.8 2.1,4.2 0.3,0.6 0.7,1 1,1.6 0.5,1 0.9,2.1 1.4,3.1 0.4,0.9 1,1.7 1.5,2.5 0.7,1.4 1.4,2.8 2.2,4.1 0.3,0.6 0.9,1 1.1,1.6 0.5,1 0.8,2.1 1.3,3.1 0.2,0.4 0.5,0.8 0.7,1.2 1.3,2.4 2.7,4.8 4,7.3 0.5,1 0.8,2.1 1.3,3.1 0.5,1 1.2,1.8 1.8,2.8 0.3,0.6 0.3,1.4 0.6,2 0.4,0.9 1.1,1.6 1.5,2.5 0.9,1.7 1.8,3.5 2.8,5.2 0.6,1 1.5,1.9 1.7,3 0.3,1.3 1.2,2.4 1.6,3.6 0.4,1.3 1.2,2.4 1.8,3.6 0.3,0.6 0.4,1.2 0.6,1.8 1.1,2.5 2.2,5 3.4,7.4 1.1,2.2 2.4,4.2 2.1,6.8 -0.3,2.6 -0.3,5.3 -0.5,7.9 0,0 0,0 0,0 -0.2,0.2 -0.5,0.3 -0.7,0.5 -0.6,0.7 -1,1.5 -1.7,2.2 -0.6,0.7 -1.3,1.2 -2,1.8 -0.1,0.1 -0.2,0.2 -0.3,0.3 -0.5,0.3 -1.1,0.6 -1.6,1 0,0 -0.1,0.1 -0.2,0.1 -0.3,0.1 -0.5,0.2 -0.8,0.4 -0.2,0 -0.5,0 -0.7,0.1 -0.4,-0.1 -0.8,-0.2 -1.3,-0.2 -148.4,0 -296.7,0 -445.1,0 -0.4,0 -0.8,0.1 -1.3,0.2 -0.3,0 -0.6,0 -0.9,-0.1 -0.2,-0.1 -0.4,-0.2 -0.6,-0.3 -0.1,0 -0.1,0 -0.1,-0.1 -0.3,-0.1 -0.7,-0.3 -1,-0.4 -0.2,-0.1 -0.4,-0.2 -0.7,-0.4 -0.2,-0.1 -0.4,-0.2 -0.6,-0.4 -0.3,-0.3 -0.6,-0.5 -0.9,-0.8 -0.2,-0.2 -0.3,-0.3 -0.5,-0.5 0,0 0,0 0,0 -0.2,-0.2 -0.3,-0.3 -0.5,-0.5 -0.1,-0.1 -0.2,-0.2 -0.2,-0.2 -0.2,-0.2 -0.3,-0.3 -0.5,-0.5 -0.3,-0.4 -0.7,-0.8 -1,-1.1 -0.4,-0.7 -0.8,-1.3 -1.2,-2 -0.2,-0.7 -0.3,-1.3 -0.5,-2 0,-0.8 -0.1,-1.7 -0.1,-2.5 0,-1.4 0,-2.7 0,-4.1 0.1,-0.3 0.1,-0.5 0.2,-0.8 0.3,-0.5 0.5,-0.9 0.8,-1.4 0.1,-0.3 0.3,-0.7 0.4,-1 1,-0.1 0.7,-0.8 0.8,-1.4 0.1,-0.2 0.2,-0.5 0.3,-0.7 1.6,-1.5 2.2,-3.5 3,-5.4 0.2,-0.4 0.4,-0.9 0.6,-1.3 0.1,-0.2 0.3,-0.3 0.4,-0.5 0,-0.2 0.1,-0.3 0.1,-0.5 0.2,-0.3 0.4,-0.7 0.6,-1 0,-0.2 0,-0.3 0,-0.5 0.1,-0.2 0.3,-0.3 0.4,-0.5 0,-0.2 0.1,-0.3 0.1,-0.5 0.2,-0.4 0.4,-0.7 0.7,-1.1 0.1,-0.3 0.3,-0.5 0.4,-0.8 0.7,-1.2 1.4,-2.5 2.1,-3.7 0.6,-1.2 1.1,-2.4 1.7,-3.6 0.2,-0.5 0.5,-0.9 0.7,-1.4 0.2,-0.2 0.3,-0.3 0.5,-0.5 0,-0.1 0,-0.3 0,-0.4 0.1,-0.2 0.2,-0.3 0.3,-0.5 0.1,-0.3 0.3,-0.7 0.4,-1 0.3,-0.5 0.6,-1 0.8,-1.4 z M 306,462.2 c 58,0 116,0 174,0 1.6,0 1.6,0 1.6,-1.6 0,-74.7 0,-149.3 0,-224 0,-1.9 0,-1.9 -1.9,-1.9 -32.2,0 -64.3,0 -96.5,0 -83.6,0 -167.3,0 -250.9,0 -1.8,0 -1.8,0 -1.8,1.8 0,74.6 0,149.2 0,223.8 0,1.9 0,1.9 1.9,1.9 57.9,0 115.8,0 173.6,0 z m -6.3,79.7 c -0.6,0 -1.1,0 -1.6,0 -12.8,0 -25.7,0 -38.5,0 -1.6,0 -2.3,0.8 -2.3,2.3 0,2.8 0,5.6 0,8.4 0,1.5 0.8,2.3 2.2,2.3 30.8,0 61.7,0 92.5,0 1.5,0 2.2,-0.8 2.2,-2.3 0,-2.8 0,-5.5 0,-8.3 0,-1.7 -0.7,-2.4 -2.4,-2.4 -12.5,0 -25,0 -37.6,0 -0.5,0 -0.9,0 -1.5,0 0,-14.2 0,-28.3 0,-42.5 0.5,0 0.9,0 1.4,0 9,0 18,0 27,0 1.5,0 2.3,-0.8 2.3,-2.2 0,-2.8 0,-5.7 0,-8.5 0,-1.4 -0.8,-2.2 -2.2,-2.2 -23.4,0 -46.7,0 -70.1,0 -1.4,0 -2.2,0.8 -2.2,2.2 0,2.8 0,5.6 0,8.4 0,1.6 0.7,2.4 2.4,2.4 9,0 17.9,0 26.9,0 0.5,0 0.9,0 1.4,0 0.1,14.2 0.1,28.2 0.1,42.4 z m -127.4,0 c -0.6,0 -1,0 -1.5,0 -12.3,0 -24.6,0 -37,0 -1.5,0 -2.3,0.8 -2.3,2.2 0,2.8 0,5.7 0,8.5 0,1.4 0.8,2.2 2.2,2.2 29,0 57.9,0 86.9,0 1.4,0 2.2,-0.8 2.2,-2.2 0,-2.8 0,-5.5 0,-8.3 0,-1.8 -0.7,-2.5 -2.5,-2.5 -10.9,0 -21.8,0 -32.8,0 -0.5,0 -0.9,0 -1.5,0 0.1,-0.5 0.1,-0.9 0.2,-1.2 1.5,-6.2 3,-12.4 4.4,-18.5 1.7,-7.2 3.5,-14.5 5.2,-21.7 0.2,-0.9 0.6,-1 1.4,-1 9.2,0 18.4,0 27.6,0 1.5,0 2.3,-0.8 2.3,-2.3 0,-2.8 0,-5.6 0,-8.4 0,-1.5 -0.8,-2.3 -2.2,-2.3 -23.3,0 -46.6,0 -69.9,0 -1.4,0 -2.2,0.8 -2.2,2.2 0,2.8 0,5.5 0,8.3 0,1.8 0.7,2.5 2.5,2.5 8.6,0 17.3,0 25.9,0 0.4,0 0.9,0 1.4,0 -3.6,14.3 -7,28.4 -10.3,42.5 z m 254.3,0 c -0.7,0 -1.1,0 -1.6,0 -11,0 -22,0 -33,0 -1.5,0 -2.3,0.8 -2.3,2.2 0,2.8 0,5.7 0,8.5 0,1.4 0.8,2.2 2.2,2.2 29,0 57.9,0 86.9,0 1.4,0 2.2,-0.8 2.2,-2.2 0,-2.8 0,-5.5 0,-8.3 0,-1.8 -0.7,-2.5 -2.5,-2.5 -12.3,0 -24.6,0 -36.8,0 -0.4,0 -0.9,0 -1.4,0 -3.4,-14.2 -6.8,-28.3 -10.2,-42.5 0.6,0 1,0 1.5,0 8.7,0 17.4,0 26,0 1.5,0 2.2,-0.8 2.2,-2.3 0,-2.8 0,-5.7 0,-8.5 0,-1.4 -0.8,-2.2 -2.2,-2.2 -23.4,0 -46.7,0 -70.1,0 -1.3,0 -2.1,0.8 -2.1,2.1 0,2.9 0,5.8 0,8.6 0,1.4 0.8,2.2 2.2,2.2 1.7,0 3.4,0 5,0 7.6,0 15.1,0 22.7,0 0.7,0 1.2,0 1.4,1 0.5,2.7 1.2,5.4 1.9,8.1 2.2,9.1 4.4,18.3 6.6,27.4 0.5,2.2 0.9,4.1 1.4,6.2 z"
         id="path4158"
         inkscape:connector-curvature="0"
         style="fill:#fc9845" /><path
         class="st2"
         d="m 82.3,575 c 0.4,-0.1 0.8,-0.2 1.3,-0.2 148.4,0 296.7,0 445.1,0 0.4,0 0.8,0.1 1.3,0.2 -0.3,0.2 -0.7,0.6 -1.1,0.7 -0.3,0.1 -0.6,0 -1,0 -147.9,0 -295.7,0 -443.6,0 -0.7,0 -1.6,0.5 -2,-0.7 z"
         id="path4160"
         inkscape:connector-curvature="0"
         style="fill:#fdb377" /><path
         class="st3"
         d="m 486.7,217.5 c -0.4,0.1 -0.8,0.2 -1.3,0.2 -119.6,0 -239.1,0 -358.7,0 -0.4,0 -0.8,-0.1 -1.3,-0.2 0.3,-0.2 0.6,-0.4 1,-0.5 0.4,-0.1 0.9,0 1.3,0 118.9,0 237.8,0 356.7,0 0.9,0 1.6,0.3 2.3,0.5 z"
         id="path4162"
         inkscape:connector-curvature="0"
         style="fill:#fca863" /><path
         class="st4"
         d="m 112.7,231 c 0,0.6 0.1,1.1 0.1,1.7 0,77.1 0,154.1 0,231.2 0,0.5 -0.3,1 -0.5,1.5 0,-0.5 0.1,-1 0.1,-1.6 0,-77.1 0,-154.1 0,-231.2 0,-0.5 0.2,-1.1 0.3,-1.6 z"
         id="path4164"
         inkscape:connector-curvature="0"
         style="fill:#fdb982" /><path
         class="st4"
         d="m 499.9,465.4 c -0.2,-0.2 -0.4,-0.3 -0.5,-0.6 -0.1,-0.3 0,-0.7 0,-1.1 0,-76.6 0,-153.3 0,-229.9 0,-0.5 0.1,-1 0.2,-1.5 0.1,0.5 0.2,1 0.2,1.5 0,76.6 0,153.2 0,229.9 0.1,0.5 0.1,1.1 0.1,1.7 z"
         id="path4166"
         inkscape:connector-curvature="0"
         style="fill:#fdb982" /><path
         class="st5"
         d="m 537.9,568.8 c 0.1,-2.6 0.2,-5.3 0.5,-7.9 0.3,-2.6 -1,-4.7 -2.1,-6.8 -1.2,-2.4 -2.3,-4.9 -3.4,-7.4 0.6,1 1.2,2 1.8,3.1 1.1,2 2.3,4.1 3.3,6.2 0.6,1.4 1.1,3 1.3,4.5 0.2,1.4 0,3 0.1,4.4 0,1.5 -0.6,2.8 -1.5,3.9 z"
         id="path4168"
         inkscape:connector-curvature="0"
         style="fill:#fdb478" /><path
         class="st2"
         d="m 85.6,534.7 c -0.5,1.2 -1.1,2.4 -1.7,3.6 -0.7,1.3 -1.4,2.5 -2.1,3.7 0.4,-1.1 0.8,-2.3 1.3,-3.3 0.6,-1.2 1.2,-2.4 1.9,-3.5 0.2,-0.3 0.5,-0.4 0.6,-0.5 z"
         id="path4170"
         inkscape:connector-curvature="0"
         style="fill:#fdb377" /><path
         class="st5"
         d="m 533.5,573.3 c 0.7,-0.6 1.4,-1.2 2,-1.8 0.6,-0.7 1.1,-1.5 1.7,-2.2 0.2,-0.2 0.5,-0.3 0.7,-0.5 -0.6,1.9 -2.1,3 -3.4,4.2 -0.2,0.3 -0.7,0.2 -1,0.3 z"
         id="path4172"
         inkscape:connector-curvature="0"
         style="fill:#fdb478" /><path
         class="st2"
         d="m 73,559.2 c 0,1.4 0,2.7 0,4.1 0,0.8 0.1,1.7 0.1,2.5 -0.2,-0.3 -0.6,-0.6 -0.6,-0.9 -0.1,-1.6 -0.1,-3.2 0,-4.8 0,-0.3 0.3,-0.6 0.5,-0.9 z"
         id="path4174"
         inkscape:connector-curvature="0"
         style="fill:#fdb377" /><path
         class="st2"
         d="m 78.4,548.5 c -0.8,1.9 -1.4,3.9 -3,5.4 1,-1.8 2,-3.6 3,-5.4 z"
         id="path4176"
         inkscape:connector-curvature="0"
         style="fill:#fdb377" /><path
         class="st4"
         d="m 499.6,231.9 c -0.2,-0.1 -0.5,-0.2 -0.5,-0.3 -0.3,-1 -0.5,-2.1 -0.7,-3.1 0.2,0.3 0.6,0.6 0.7,1 0.3,0.8 0.4,1.6 0.5,2.4 z"
         id="path4178"
         inkscape:connector-curvature="0"
         style="fill:#fdb982" /><path
         class="st4"
         d="m 113.9,227.9 c -0.2,0.8 -0.3,1.6 -0.5,2.4 -0.1,0.2 -0.4,0.4 -0.6,0.5 0.1,-0.5 0.1,-0.9 0.3,-1.4 0.2,-0.5 0.5,-1 0.8,-1.5 z"
         id="path4180"
         inkscape:connector-curvature="0"
         style="fill:#fdb982" /><path
         class="st3"
         d="m 124.3,217.5 c -0.7,0.4 -1.4,0.8 -2.1,1.3 0.7,-0.6 1,-1.5 2.1,-1.3 z"
         id="path4182"
         inkscape:connector-curvature="0"
         style="fill:#fca863" /><path
         class="st2"
         d="m 73.6,567.8 c 0.4,0.7 0.8,1.3 1.2,2 -0.4,-0.6 -0.8,-1.3 -1.2,-2 z"
         id="path4184"
         inkscape:connector-curvature="0"
         style="fill:#fdb377" /><path
         class="st4"
         d="m 492.3,220 c -0.5,-0.3 -1,-0.6 -1.5,-0.9 0.7,0 1.2,0.2 1.5,0.9 z"
         id="path4186"
         inkscape:connector-curvature="0"
         style="fill:#fdb982" /><path
         class="st2"
         d="m 531.6,574.5 c 0.5,-0.3 1.1,-0.6 1.6,-1 -0.3,0.8 -0.8,1.1 -1.6,1 z"
         id="path4188"
         inkscape:connector-curvature="0"
         style="fill:#fdb377" /><path
         class="st2"
         d="m 89.5,527.2 c 0.1,0.7 0,1.3 -0.8,1.5 0.2,-0.5 0.5,-1 0.8,-1.5 z"
         id="path4190"
         inkscape:connector-curvature="0"
         style="fill:#fdb377" /><path
         class="st3"
         d="m 490,218.8 c -0.5,-0.3 -1.1,-0.5 -1.6,-0.8 0.5,0.3 1,0.5 1.6,0.8 z"
         id="path4192"
         inkscape:connector-curvature="0"
         style="fill:#fca863" /><path
         class="st4"
         d="m 494.8,222.3 c -0.4,-0.4 -0.8,-0.8 -1.2,-1.1 0.4,0.3 0.8,0.7 1.2,1.1 z"
         id="path4194"
         inkscape:connector-curvature="0"
         style="fill:#fdb982" /><path
         class="st2"
         d="m 75.1,554.7 c -0.1,0.5 0.2,1.3 -0.8,1.4 0.3,-0.5 0.6,-1 0.8,-1.4 z"
         id="path4196"
         inkscape:connector-curvature="0"
         style="fill:#fdb377" /><path
         class="st4"
         d="m 119.5,220.4 c -0.4,0.3 -0.9,0.6 -1.3,0.8 0.5,-0.2 0.9,-0.5 1.3,-0.8 z"
         id="path4198"
         inkscape:connector-curvature="0"
         style="fill:#fdb982" /><path
         class="st2"
         d="m 88.3,529.5 c -0.3,0.5 -0.5,0.9 -0.8,1.4 0.3,-0.5 0.6,-1 0.8,-1.4 z"
         id="path4200"
         inkscape:connector-curvature="0"
         style="fill:#fdb377" /><path
         class="st4"
         d="m 114.7,225.9 c -0.3,0.5 -0.5,0.9 -0.8,1.4 0.3,-0.5 0.6,-1 0.8,-1.4 z"
         id="path4202"
         inkscape:connector-curvature="0"
         style="fill:#fdb982" /><path
         class="st4"
         d="m 496.6,224.7 c -0.3,-0.4 -0.6,-0.8 -0.8,-1.2 0.3,0.4 0.6,0.8 0.8,1.2 z"
         id="path4204"
         inkscape:connector-curvature="0"
         style="fill:#fdb982" /><path
         class="st4"
         d="m 498.4,227.8 c -0.2,-0.3 -0.4,-0.7 -0.6,-1 0.2,0.3 0.4,0.6 0.6,1 z"
         id="path4206"
         inkscape:connector-curvature="0"
         style="fill:#fdb982" /><path
         class="st2"
         d="m 81.5,542.8 c -0.2,0.4 -0.4,0.7 -0.7,1.1 0.2,-0.4 0.5,-0.8 0.7,-1.1 z"
         id="path4208"
         inkscape:connector-curvature="0"
         style="fill:#fdb377" /><path
         class="st2"
         d="m 80.2,545.3 c -0.2,0.3 -0.4,0.7 -0.6,1 0.2,-0.4 0.4,-0.7 0.6,-1 z"
         id="path4210"
         inkscape:connector-curvature="0"
         style="fill:#fdb377" /><path
         class="st4"
         d="m 117.5,221.9 c -0.2,0.4 -0.5,0.7 -0.7,1.1 0.2,-0.4 0.5,-0.7 0.7,-1.1 z"
         id="path4212"
         inkscape:connector-curvature="0"
         style="fill:#fdb982" /><path
         class="st2"
         d="m 73.9,557.1 c -0.3,0.5 -0.5,0.9 -0.8,1.4 0.3,-0.5 0.6,-1 0.8,-1.4 z"
         id="path4214"
         inkscape:connector-curvature="0"
         style="fill:#fdb377" /><path
         class="st2"
         d="m 79.6,574.1 c 0.3,0.1 0.7,0.3 1,0.4 -0.3,-0.1 -0.6,-0.3 -1,-0.4 z"
         id="path4216"
         inkscape:connector-curvature="0"
         style="fill:#fdb377" /><path
         class="st4"
         d="m 493,220.8 c -0.2,-0.2 -0.5,-0.5 -0.7,-0.7 0.2,0.2 0.5,0.4 0.7,0.7 z"
         id="path4218"
         inkscape:connector-curvature="0"
         style="fill:#fdb982" /><path
         class="st4"
         d="m 115.7,224.4 c -0.2,0.3 -0.4,0.5 -0.6,0.8 0.2,-0.3 0.4,-0.6 0.6,-0.8 z"
         id="path4220"
         inkscape:connector-curvature="0"
         style="fill:#fdb982" /><path
         class="st2"
         d="m 530.6,575 c 0.3,-0.1 0.5,-0.2 0.8,-0.4 -0.2,0.1 -0.5,0.2 -0.8,0.4 z"
         id="path4222"
         inkscape:connector-curvature="0"
         style="fill:#fdb377" /><path
         class="st3"
         d="m 488.2,217.9 c -0.2,-0.1 -0.4,-0.2 -0.6,-0.4 0.3,0.1 0.4,0.3 0.6,0.4 z"
         id="path4224"
         inkscape:connector-curvature="0"
         style="fill:#fca863" /><path
         class="st4"
         d="m 121,219.3 c -0.2,0.1 -0.4,0.2 -0.6,0.3 0.2,-0.1 0.4,-0.2 0.6,-0.3 z"
         id="path4226"
         inkscape:connector-curvature="0"
         style="fill:#fdb982" /><path
         class="st2"
         d="m 90.2,525.8 c -0.1,0.2 -0.2,0.4 -0.3,0.6 0.1,-0.2 0.2,-0.4 0.3,-0.6 z"
         id="path4228"
         inkscape:connector-curvature="0"
         style="fill:#fdb377" /><path
         class="st2"
         d="m 87.1,531.9 c -0.1,0.2 -0.2,0.3 -0.3,0.5 0.1,-0.2 0.2,-0.4 0.3,-0.5 z"
         id="path4230"
         inkscape:connector-curvature="0"
         style="fill:#fdb377" /><path
         class="st2"
         d="m 86.8,532.7 c -0.2,0.2 -0.3,0.3 -0.5,0.5 0.2,-0.1 0.4,-0.3 0.5,-0.5 z"
         id="path4232"
         inkscape:connector-curvature="0"
         style="fill:#fdb377" /><path
         class="st2"
         d="m 80.7,544.4 c -0.1,0.2 -0.3,0.3 -0.4,0.5 0.1,-0.2 0.2,-0.4 0.4,-0.5 z"
         id="path4234"
         inkscape:connector-curvature="0"
         style="fill:#fdb377" /><path
         class="st2"
         d="m 79.5,546.8 c -0.1,0.2 -0.3,0.3 -0.4,0.5 0.1,-0.2 0.2,-0.4 0.4,-0.5 z"
         id="path4236"
         inkscape:connector-curvature="0"
         style="fill:#fdb377" /><path
         class="st4"
         d="m 497.2,225.6 c -0.1,-0.2 -0.3,-0.3 -0.4,-0.5 0.1,0.2 0.3,0.4 0.4,0.5 z"
         id="path4238"
         inkscape:connector-curvature="0"
         style="fill:#fdb982" /><path
         class="st2"
         d="m 75.9,571 c 0.2,0.2 0.3,0.3 0.5,0.5 -0.2,-0.2 -0.4,-0.4 -0.5,-0.5 z"
         id="path4240"
         inkscape:connector-curvature="0"
         style="fill:#fdb377" /><path
         class="st2"
         d="m 76.6,571.7 c 0.2,0.2 0.3,0.3 0.5,0.5 -0.2,-0.2 -0.4,-0.4 -0.5,-0.5 z"
         id="path4242"
         inkscape:connector-curvature="0"
         style="fill:#fdb377" /><path
         class="st2"
         d="m 78.4,573.4 c 0.2,0.1 0.4,0.2 0.6,0.4 -0.2,-0.2 -0.4,-0.3 -0.6,-0.4 z"
         id="path4244"
         inkscape:connector-curvature="0"
         style="fill:#fdb377" /><path
         class="st2"
         d="m 80.8,574.6 c 0.2,0.1 0.4,0.2 0.6,0.3 -0.2,-0.1 -0.4,-0.2 -0.6,-0.3 z"
         id="path4246"
         inkscape:connector-curvature="0"
         style="fill:#fdb377" /><path
         class="st2"
         d="m 77.1,572.2 c 0.2,0.2 0.3,0.3 0.5,0.5 -0.2,-0.2 -0.4,-0.4 -0.5,-0.5 z"
         id="path4248"
         inkscape:connector-curvature="0"
         style="fill:#fdb377" /><path
         class="st6"
         d="m 306,462.2 c -57.9,0 -115.7,0 -173.6,0 -1.9,0 -1.9,0 -1.9,-1.9 0,-74.6 0,-149.2 0,-223.8 0,-1.8 0,-1.8 1.8,-1.8 83.6,0 167.3,0 250.9,0 32.2,0 64.3,0 96.5,0 1.9,0 1.9,0 1.9,1.9 0,74.7 0,149.3 0,224 0,1.6 0,1.6 -1.6,1.6 -58,0 -116,0 -174,0 z m 26.7,-155.4 c 0.3,0.6 0.6,1.2 0.9,1.7 1.3,2.5 2.7,4.9 4,7.4 1.5,2.8 3,5.6 4.6,8.3 0.8,1.4 1.7,2.6 2.6,4 1.4,2.3 2.8,4.7 4.2,7.1 1.2,1.9 2.4,3.9 3.6,5.8 0.8,1.3 1.6,2.5 2.4,3.8 1.1,1.8 2.3,3.5 3.5,5.4 1.4,2.2 2.6,4.5 4,6.8 0.3,0.5 0.8,1.2 1.3,1.3 1.5,0.2 3,0.2 4.4,-0.1 0.5,-0.1 0.8,-1.3 1.3,-2 0.1,-0.1 0.2,-0.2 0.2,-0.3 1.5,-2.5 3,-4.9 4.5,-7.4 1.6,-2.6 3.1,-5.2 4.7,-7.8 1.5,-2.4 2.9,-4.9 4.4,-7.3 1.2,-2 2.3,-4 3.5,-6 0.8,-1.4 1.7,-2.7 2.5,-4.1 0.6,-1 1.2,-2.1 1.8,-3.2 1.4,-2.5 2.8,-5.1 4.3,-7.6 0.9,-1.6 1.7,-3.2 2.7,-4.7 0.2,-0.3 0.7,-0.5 1.1,-0.7 0.1,0.4 0.4,0.8 0.3,1.2 -0.1,1.1 -0.4,2.2 -0.5,3.2 -0.2,1.8 -0.1,3.5 -0.5,5.3 -0.5,2.3 -0.7,4.8 -0.7,7.2 0,31.2 0,62.5 -0.1,93.7 0,0.9 0.3,1.2 1.2,1.2 4.6,0 9.2,0 13.8,0 1.1,0 1.3,-0.4 1.3,-1.4 0,-45.7 0,-91.4 0,-137 0,-1.2 -0.4,-1.5 -1.5,-1.5 -4,0.1 -7.9,0.1 -11.9,0 -1.2,0 -1.8,0.5 -2.3,1.4 -1.4,2.6 -3,5.1 -4.5,7.6 -1.5,2.5 -3,4.9 -4.5,7.4 -0.9,1.5 -1.8,3.1 -2.8,4.7 -1.4,2.3 -2.9,4.6 -4.3,6.9 -1.4,2.3 -2.6,4.6 -4,6.9 -1,1.7 -2.1,3.3 -3.1,5 -1.4,2.4 -2.8,4.8 -4.2,7.2 -1.1,1.9 -2.1,3.7 -3.3,5.6 -0.2,0.3 -0.6,0.6 -0.8,0.6 -0.3,-0.1 -0.7,-0.4 -0.9,-0.7 -1.1,-1.9 -2.2,-3.8 -3.4,-5.6 -0.9,-1.4 -1.8,-2.8 -2.7,-4.3 -1.4,-2.3 -2.9,-4.6 -4.3,-6.9 -1.1,-1.8 -2.3,-3.7 -3.4,-5.5 -1.4,-2.2 -2.7,-4.5 -4.1,-6.8 -1.6,-2.5 -3.3,-4.9 -4.8,-7.4 -1.2,-1.9 -2.3,-3.8 -3.4,-5.8 -0.8,-1.4 -1.8,-2.7 -2.6,-4.1 -1.1,-1.8 -2.2,-3.7 -3.3,-5.4 -0.3,-0.4 -0.9,-0.7 -1.4,-0.7 -4.3,-0.1 -8.6,0 -13,0 -1,0 -1.4,0.3 -1.4,1.4 0,45.7 0,91.4 0,137 0,1.1 0.3,1.5 1.4,1.5 4.4,0 8.8,-0.1 13.2,0 1.2,0 1.5,-0.4 1.5,-1.5 0,-29.9 0,-59.8 -0.1,-89.6 0,-2 0.2,-3.9 -0.5,-6 -0.7,-1.8 -0.5,-3.9 -0.7,-5.8 -0.2,-2.4 -0.5,-4.9 -0.7,-7.3 0,-0.2 -0.1,-0.3 -0.2,-0.4 -0.7,-0.9 -0.1,-1.2 0.7,-1.7 z m -131.3,87 c 0,5.2 0,10.3 0,15.5 0,0.7 0.1,1.1 0.9,1.5 1.9,0.7 3.7,1.6 5.5,2.4 2.3,1 4.6,2.1 7,2.9 2.7,0.9 5.6,1.7 8.3,2.4 0.9,0.2 1.7,0.4 2.6,0.6 1.9,0.4 3.8,0.8 5.7,1.1 0.2,0 0.5,0 0.7,0.1 2.3,0.4 4.6,1 6.8,1.1 5.3,0.1 10.7,0.4 16,-0.5 1.8,-0.3 3.6,-0.5 5.4,-0.8 0.8,-0.1 1.7,-0.4 2.5,-0.7 1.5,-0.5 3.1,-1.1 4.6,-1.6 1.4,-0.5 2.8,-0.9 4.1,-1.6 1.1,-0.5 2.2,-1.3 3.2,-1.9 1.6,-1 3.4,-1.8 4.8,-3.1 2.3,-2.2 4.4,-4.7 6.6,-7.1 2.1,-2.4 3.4,-5.4 4.5,-8.3 0.8,-2.2 1.3,-4.5 1.8,-6.8 0.3,-1.8 0.5,-3.7 0.5,-5.5 0,-1.5 -0.4,-3 -0.4,-4.6 0,-2.4 -0.5,-4.7 -1.2,-7 -0.9,-3 -2.3,-5.6 -4.1,-8.1 -1.5,-2 -3.2,-3.9 -5,-5.6 -1.8,-1.8 -3.6,-3.5 -5.6,-5 -1.9,-1.4 -4,-2.6 -6.1,-3.8 -3.2,-1.8 -6.4,-3.6 -9.7,-5.3 -1.8,-0.9 -3.6,-1.6 -5.5,-2.5 -0.9,-0.4 -1.7,-0.8 -2.6,-1.1 -2.2,-0.9 -4.5,-1.8 -6.7,-2.8 -2.6,-1.2 -5.1,-2.4 -7.6,-3.8 -3,-1.6 -6.2,-3.2 -9,-5.2 -2.6,-1.9 -4.9,-4.3 -7.3,-6.5 -0.3,-0.3 -0.5,-0.7 -0.7,-1.1 -0.6,-1.4 -1.4,-2.7 -1.8,-4.2 -0.5,-1.7 -0.9,-3.4 -1.1,-5.1 -0.2,-1.9 0.6,-3.6 1,-5.5 0.4,-1.8 1.4,-3.1 2.5,-4.5 2,-2.6 4.5,-4.8 7.5,-6.3 1.5,-0.7 3.1,-1.3 4.7,-1.9 0.9,-0.3 1.8,-0.6 2.7,-0.8 1.5,-0.4 3,-1 4.5,-1 6.1,0 12.3,-0.7 18.4,0.6 1.8,0.4 3.8,0.4 5.6,0.6 0.2,0 0.3,0.1 0.5,0.1 1.4,0.4 2.9,0.9 4.3,1 1,0.1 1.2,0.5 1.2,1.4 0,6.3 0,12.6 0,18.8 0,1.1 0.2,1.5 1.4,1.4 3.8,-0.1 7.7,-0.1 11.5,0 1.2,0 1.6,-0.3 1.6,-1.5 -0.1,-9.3 0,-18.6 0,-28 0,-0.8 0.1,-1.7 0,-2.5 -0.1,-0.4 -0.4,-0.9 -0.8,-1 -1.3,-0.6 -2.7,-1.1 -4.1,-1.5 -0.9,-0.3 -1.9,-0.7 -2.9,-0.9 -1.1,-0.3 -2.2,-0.4 -3.3,-0.6 -1.9,-0.4 -3.8,-0.8 -5.7,-1.1 -0.2,0 -0.5,0 -0.7,-0.1 -1.9,-0.4 -3.8,-0.8 -5.8,-1.1 -2.3,-0.3 -4.6,-0.4 -7,-0.5 -1.6,-0.1 -3.3,-0.2 -4.9,-0.2 -3.6,0.1 -7.2,0.4 -10.8,0.6 -1.9,0.1 -3.8,0.5 -5.6,0.7 -0.2,0 -0.3,0.1 -0.5,0.1 -1.1,0.3 -2.2,0.6 -3.3,0.9 -1.8,0.5 -3.6,0.9 -5.3,1.6 -1.8,0.7 -3.6,1.6 -5.3,2.7 -2.3,1.4 -4.6,2.8 -6.6,4.5 -2.8,2.3 -5.1,5.1 -6.9,8.3 -0.6,1 -1.1,1.9 -1.5,3 -0.5,1.5 -0.9,3 -1.3,4.5 -0.4,1.6 -1,3.1 -1.1,4.7 -0.1,4.4 -0.4,8.9 1,13.3 0.6,1.8 1.2,3.6 1.9,5.4 1.2,3.2 3.4,5.7 5.6,8.3 2.8,3.3 6.2,6.1 10,8.3 2,1.2 3.8,2.4 5.9,3.5 4,2 8,4 12.1,5.9 3.4,1.6 7,2.8 10.4,4.3 2.9,1.3 5.8,2.6 8.6,4.1 2.1,1.1 4.1,2.3 6,3.6 2.2,1.5 4.3,3 6.3,4.7 2.1,1.7 3.6,4 4.7,6.5 0.8,1.8 1.5,3.6 1.3,5.6 -0.2,2.3 0.5,4.6 -0.6,6.9 -0.5,1 -0.3,2.3 -0.8,3.3 -1.1,2.3 -2.5,4.5 -4.4,6.3 -1.6,1.5 -3.3,3.1 -5.3,4.1 -2.1,1.1 -4.3,2.1 -6.6,2.7 -1.3,0.3 -2.6,0.5 -3.9,0.8 -0.2,0 -0.5,0 -0.7,0.1 -2.7,0.4 -5.4,0.9 -8.1,1.1 -1.7,0.1 -3.5,-0.2 -5.3,-0.4 -3,-0.3 -6,-0.3 -8.9,-1.3 -2.1,-0.7 -4.4,-1 -6.5,-1.8 -2.9,-1.1 -5.8,-2.4 -8.6,-3.7 -0.7,-0.3 -1,-0.9 -1,-1.7 0,-6.5 0,-13 0.1,-19.4 0,-1.2 -0.4,-1.6 -1.6,-1.5 -3.8,0.1 -7.7,0.1 -11.5,0 -1.1,0 -1.4,0.3 -1.4,1.4 0.2,4.9 0.2,10 0.2,15.1 z"
         id="path4250"
         inkscape:connector-curvature="0"
         style="fill:#ffffff;fill-opacity:0" /><path
         class="st0"
         d="m 299.7,541.9 c 0,-14.2 0,-28.3 0,-42.5 -0.5,0 -0.9,0 -1.4,0 -9,0 -17.9,0 -26.9,0 -1.6,0 -2.4,-0.7 -2.4,-2.4 0,-2.8 0,-5.6 0,-8.4 0,-1.4 0.8,-2.2 2.2,-2.2 23.4,0 46.7,0 70.1,0 1.4,0 2.2,0.8 2.2,2.2 0,2.8 0,5.7 0,8.5 0,1.4 -0.8,2.2 -2.3,2.2 -9,0 -18,0 -27,0 -0.4,0 -0.9,0 -1.4,0 0,14.2 0,28.3 0,42.5 0.5,0 1,0 1.5,0 12.5,0 25,0 37.6,0 1.7,0 2.4,0.7 2.4,2.4 0,2.8 0,5.5 0,8.3 0,1.5 -0.8,2.3 -2.2,2.3 -30.8,0 -61.7,0 -92.5,0 -1.4,0 -2.2,-0.8 -2.2,-2.3 0,-2.8 0,-5.6 0,-8.4 0,-1.5 0.8,-2.3 2.3,-2.3 12.8,0 25.7,0 38.5,0 0.4,0.1 0.9,0.1 1.5,0.1 z"
         id="path4252"
         inkscape:connector-curvature="0"
         style="fill:#ffffff;fill-opacity:0" /><path
         class="st0"
         d="m 172.3,541.9 c 3.4,-14.2 6.8,-28.3 10.2,-42.5 -0.5,0 -1,0 -1.4,0 -8.6,0 -17.3,0 -25.9,0 -1.8,0 -2.5,-0.7 -2.5,-2.5 0,-2.8 0,-5.5 0,-8.3 0,-1.4 0.8,-2.2 2.2,-2.2 23.3,0 46.6,0 69.9,0 1.5,0 2.2,0.8 2.2,2.3 0,2.8 0,5.6 0,8.4 0,1.5 -0.8,2.3 -2.3,2.3 -9.2,0 -18.4,0 -27.6,0 -0.7,0 -1.1,0.1 -1.4,1 -1.7,7.3 -3.5,14.5 -5.2,21.7 -1.5,6.2 -3,12.4 -4.4,18.5 -0.1,0.3 -0.1,0.7 -0.2,1.2 0.6,0 1,0 1.5,0 10.9,0 21.8,0 32.8,0 1.8,0 2.5,0.7 2.5,2.5 0,2.8 0,5.5 0,8.3 0,1.4 -0.8,2.2 -2.2,2.2 -29,0 -57.9,0 -86.9,0 -1.4,0 -2.2,-0.8 -2.2,-2.2 0,-2.8 0,-5.7 0,-8.5 0,-1.4 0.8,-2.2 2.3,-2.2 12.3,0 24.6,0 37,0 0.5,0 1,0 1.6,0 z"
         id="path4254"
         inkscape:connector-curvature="0"
         style="fill:#ffffff;fill-opacity:0" /><path
         class="st0"
         d="m 426.6,541.9 c -0.5,-2.1 -0.9,-4 -1.4,-5.9 -2.2,-9.1 -4.4,-18.3 -6.6,-27.4 -0.7,-2.7 -1.4,-5.4 -1.9,-8.1 -0.2,-1 -0.6,-1 -1.4,-1 -7.6,0 -15.1,0 -22.7,0 -1.7,0 -3.4,0 -5,0 -1.4,0 -2.2,-0.8 -2.2,-2.2 0,-2.9 0,-5.8 0,-8.6 0,-1.3 0.8,-2.1 2.1,-2.1 23.4,0 46.7,0 70.1,0 1.4,0 2.2,0.8 2.2,2.2 0,2.8 0,5.7 0,8.5 0,1.5 -0.8,2.2 -2.2,2.3 -8.7,0 -17.4,0 -26,0 -0.4,0 -0.9,0 -1.5,0 3.4,14.2 6.8,28.3 10.2,42.5 0.5,0 1,0 1.4,0 12.3,0 24.6,0 36.8,0 1.8,0 2.5,0.7 2.5,2.5 0,2.8 0,5.5 0,8.3 0,1.4 -0.8,2.2 -2.2,2.2 -29,0 -57.9,0 -86.9,0 -1.4,0 -2.2,-0.8 -2.2,-2.2 0,-2.8 0,-5.7 0,-8.5 0,-1.4 0.8,-2.2 2.3,-2.2 11,0 22,0 33,0 0.5,-0.3 0.9,-0.3 1.6,-0.3 z"
         id="path4256"
         inkscape:connector-curvature="0"
         style="fill:#ffffff;fill-opacity:0" /><path
         class="st7"
         d="m 332.7,306.8 c -0.9,0.4 -1.4,0.7 -0.7,1.5 0.1,0.1 0.1,0.3 0.2,0.4 0.2,2.4 0.5,4.9 0.7,7.3 0.2,2 0,4.1 0.7,5.8 0.8,2 0.5,4 0.5,6 0,29.9 0,59.8 0.1,89.6 0,1.1 -0.3,1.5 -1.5,1.5 -4.4,-0.1 -8.8,-0.1 -13.2,0 -1.1,0 -1.4,-0.3 -1.4,-1.5 0,-45.7 0,-91.4 0,-137 0,-1.1 0.4,-1.4 1.4,-1.4 4.3,0 8.6,0 13,0 0.5,0 1.1,0.3 1.4,0.7 1.2,1.8 2.2,3.6 3.3,5.4 0.9,1.4 1.8,2.7 2.6,4.1 1.2,1.9 2.3,3.9 3.4,5.8 1.6,2.5 3.3,4.9 4.8,7.4 1.4,2.2 2.7,4.5 4.1,6.8 1.1,1.8 2.3,3.7 3.4,5.5 1.4,2.3 2.9,4.6 4.3,6.9 0.9,1.4 1.8,2.8 2.7,4.3 1.1,1.9 2.2,3.8 3.4,5.6 0.2,0.3 0.5,0.7 0.9,0.7 0.2,0.1 0.6,-0.3 0.8,-0.6 1.1,-1.8 2.2,-3.7 3.3,-5.6 1.4,-2.4 2.8,-4.8 4.2,-7.2 1,-1.7 2.1,-3.3 3.1,-5 1.4,-2.3 2.6,-4.6 4,-6.9 1.4,-2.3 2.9,-4.6 4.3,-6.9 0.9,-1.5 1.8,-3.1 2.8,-4.7 1.5,-2.5 3,-4.9 4.5,-7.4 1.5,-2.5 3,-5.1 4.5,-7.6 0.5,-1 1.1,-1.5 2.3,-1.4 4,0.1 7.9,0.1 11.9,0 1.1,0 1.5,0.3 1.5,1.5 0,45.7 0,91.4 0,137 0,1 -0.3,1.4 -1.3,1.4 -4.6,-0.1 -9.2,0 -13.8,0 -0.9,0 -1.2,-0.3 -1.2,-1.2 0,-31.2 0,-62.5 0.1,-93.7 0,-2.4 0.2,-4.8 0.7,-7.2 0.4,-1.8 0.4,-3.5 0.5,-5.3 0.1,-1.1 0.4,-2.2 0.5,-3.2 0,-0.4 -0.2,-0.8 -0.3,-1.2 -0.4,0.2 -0.9,0.4 -1.1,0.7 -0.9,1.5 -1.8,3.1 -2.7,4.7 -1.4,2.5 -2.8,5.1 -4.3,7.6 -0.6,1.1 -1.1,2.1 -1.8,3.2 -0.8,1.4 -1.7,2.7 -2.5,4.1 -1.2,2 -2.3,4 -3.5,6 -1.4,2.4 -2.9,4.9 -4.4,7.3 -1.6,2.6 -3.1,5.2 -4.7,7.8 -1.5,2.5 -3,4.9 -4.5,7.4 -0.1,0.1 -0.2,0.2 -0.2,0.3 -0.4,0.7 -0.7,1.9 -1.3,2 -1.4,0.3 -2.9,0.2 -4.4,0.1 -0.5,-0.1 -1,-0.8 -1.3,-1.3 -1.4,-2.2 -2.6,-4.5 -4,-6.8 -1.1,-1.8 -2.3,-3.6 -3.5,-5.4 -0.8,-1.3 -1.6,-2.5 -2.4,-3.8 -1.2,-1.9 -2.4,-3.9 -3.6,-5.8 -1.4,-2.4 -2.8,-4.7 -4.2,-7.1 -0.8,-1.3 -1.8,-2.6 -2.6,-4 -1.6,-2.8 -3.1,-5.6 -4.6,-8.3 -1.3,-2.5 -2.7,-4.9 -4,-7.4 -0.3,-0.3 -0.5,-0.8 -0.9,-1.5 z"
         id="path4258"
         inkscape:connector-curvature="0"
         style="fill:#fc9947" /><path
         class="st7"
         d="m 201.4,393.8 c 0,-5.1 0,-10.2 0,-15.4 0,-1 0.3,-1.4 1.4,-1.4 3.8,0.1 7.7,0.1 11.5,0 1.2,0 1.6,0.3 1.6,1.5 -0.1,6.5 0,13 -0.1,19.4 0,0.9 0.3,1.4 1,1.7 2.9,1.3 5.7,2.6 8.6,3.7 2.1,0.8 4.4,1.1 6.5,1.8 2.9,1 5.9,1.1 8.9,1.3 1.8,0.2 3.5,0.5 5.3,0.4 2.7,-0.2 5.4,-0.7 8.1,-1.1 0.2,0 0.5,0 0.7,-0.1 1.3,-0.2 2.6,-0.4 3.9,-0.8 2.3,-0.6 4.5,-1.6 6.6,-2.7 2.1,-1.1 3.7,-2.6 5.3,-4.1 1.9,-1.8 3.2,-4 4.4,-6.3 0.5,-1 0.3,-2.3 0.8,-3.3 1.1,-2.3 0.4,-4.6 0.6,-6.9 0.1,-2 -0.6,-3.9 -1.3,-5.6 -1.1,-2.5 -2.6,-4.8 -4.7,-6.5 -2.1,-1.6 -4.2,-3.2 -6.3,-4.7 -1.9,-1.3 -4,-2.5 -6,-3.6 -2.8,-1.4 -5.7,-2.8 -8.6,-4.1 -3.4,-1.5 -7,-2.8 -10.4,-4.3 -4.1,-1.9 -8.1,-3.8 -12.1,-5.9 -2,-1 -3.9,-2.3 -5.9,-3.5 -3.8,-2.2 -7.1,-5 -10,-8.3 -2.2,-2.5 -4.4,-5.1 -5.6,-8.3 -0.7,-1.8 -1.3,-3.6 -1.9,-5.4 -1.4,-4.4 -1.1,-8.8 -1,-13.3 0,-1.6 0.7,-3.2 1.1,-4.7 0.4,-1.5 0.8,-3 1.3,-4.5 0.4,-1 0.9,-2 1.5,-3 1.8,-3.2 4.1,-6 6.9,-8.3 2.1,-1.7 4.3,-3.1 6.6,-4.5 1.7,-1 3.5,-1.9 5.3,-2.7 1.7,-0.7 3.5,-1.1 5.3,-1.6 1.1,-0.3 2.2,-0.6 3.3,-0.9 0.2,0 0.3,-0.1 0.5,-0.1 1.9,-0.2 3.7,-0.6 5.6,-0.7 3.6,-0.3 7.2,-0.5 10.8,-0.6 1.6,-0.1 3.3,0.1 4.9,0.2 2.3,0.1 4.7,0.2 7,0.5 1.9,0.2 3.8,0.7 5.8,1.1 0.2,0 0.5,0 0.7,0.1 1.9,0.4 3.8,0.8 5.7,1.1 1.1,0.2 2.2,0.4 3.3,0.6 1,0.2 1.9,0.6 2.9,0.9 1.4,0.5 2.8,1 4.1,1.5 0.3,0.1 0.7,0.6 0.8,1 0.1,0.8 0,1.7 0,2.5 0,9.3 0,18.6 0,28 0,1.2 -0.3,1.6 -1.6,1.5 -3.8,-0.1 -7.7,-0.1 -11.5,0 -1.2,0 -1.4,-0.4 -1.4,-1.4 0,-6.3 0,-12.6 0,-18.8 0,-0.9 -0.2,-1.3 -1.2,-1.4 -1.5,-0.2 -2.9,-0.7 -4.3,-1 -0.2,0 -0.3,-0.1 -0.5,-0.1 -1.9,-0.2 -3.8,-0.2 -5.6,-0.6 -6.1,-1.2 -12.2,-0.5 -18.4,-0.6 -1.5,0 -3,0.6 -4.5,1 -0.9,0.2 -1.8,0.5 -2.7,0.8 -1.6,0.6 -3.2,1.2 -4.7,1.9 -3,1.5 -5.5,3.7 -7.5,6.3 -1,1.3 -2,2.7 -2.5,4.5 -0.4,1.8 -1.2,3.6 -1,5.5 0.2,1.7 0.5,3.5 1.1,5.1 0.4,1.4 1.2,2.8 1.8,4.2 0.2,0.4 0.4,0.8 0.7,1.1 2.4,2.2 4.6,4.6 7.3,6.5 2.8,2 5.9,3.5 9,5.2 2.5,1.3 5.1,2.6 7.6,3.8 2.2,1 4.4,1.9 6.7,2.8 0.9,0.4 1.7,0.8 2.6,1.1 1.8,0.8 3.7,1.5 5.5,2.5 3.3,1.7 6.5,3.5 9.7,5.3 2.1,1.2 4.2,2.4 6.1,3.8 2,1.5 3.8,3.2 5.6,5 1.8,1.8 3.5,3.6 5,5.6 1.8,2.5 3.2,5.1 4.1,8.1 0.7,2.3 1.1,4.6 1.2,7 0,1.5 0.4,3 0.4,4.6 0,1.8 -0.1,3.7 -0.5,5.5 -0.4,2.3 -1,4.6 -1.8,6.8 -1.1,3 -2.4,5.9 -4.5,8.3 -2.1,2.4 -4.2,4.9 -6.6,7.1 -1.4,1.3 -3.2,2.1 -4.8,3.1 -1.1,0.7 -2.1,1.4 -3.2,1.9 -1.3,0.6 -2.7,1.1 -4.1,1.6 -1.5,0.6 -3.1,1.1 -4.6,1.6 -0.8,0.3 -1.7,0.5 -2.5,0.7 -1.8,0.3 -3.6,0.5 -5.4,0.8 -5.3,0.9 -10.6,0.6 -16,0.5 -2.3,-0.1 -4.6,-0.7 -6.8,-1.1 -0.2,0 -0.5,0 -0.7,-0.1 -1.9,-0.4 -3.8,-0.7 -5.7,-1.1 -0.9,-0.2 -1.8,-0.4 -2.6,-0.6 -2.8,-0.8 -5.6,-1.5 -8.3,-2.4 -2.4,-0.8 -4.7,-1.9 -7,-2.9 -1.8,-0.8 -3.6,-1.7 -5.5,-2.4 -0.8,-0.3 -0.9,-0.8 -0.9,-1.5 -0.2,-4.9 -0.2,-10 -0.2,-15.2 z"
         id="path4260"
         inkscape:connector-curvature="0"
         style="fill:#fc9947" /></g></g></svg>